<svg aria-hidden="true" style="position:absolute;width:0;height:0;overflow:hidden" xmlns="http://www.w3.org/2000/svg">
  <defs>
    <symbol id="eye-icon" viewBox="0 0 32 32">
      <path stroke-linejoin="round" stroke-linecap="round" stroke-width="1.333" d="M2.715 16.429a1.35 1.35 0 0 1 0-.852C4.564 10.013 9.814 6 16 6c6.184 0 11.431 4.009 13.284 9.571.093.276.093.575 0 .852C27.436 21.987 22.187 26 16 26c-6.184 0-11.432-4.009-13.285-9.571z"/>
      <path stroke-linejoin="round" stroke-linecap="round" stroke-width="1.333" d="M20 16a4.003 4.003 0 0 1-4 4 4.003 4.003 0 0 1-4-4 4.003 4.003 0 0 1 4-4 4.003 4.003 0 0 1 4 4z"/>
    </symbol>

    <symbol id="closed-eye-icon" viewBox="0 0 32 32">
      <path stroke-linejoin="round" stroke-linecap="round" stroke-width="1.333" d="M5.307 10.964A13.978 13.978 0 0 0 2.579 16C4.302 21.784 9.659 26 16 26c1.324 0 2.604-.184 3.817-.527M8.304 8.304A13.936 13.936 0 0 1 16 6c6.341 0 11.697 4.216 13.42 9.997a14.033 14.033 0 0 1-5.724 7.699M8.304 8.304 4 4m4.304 4.304 4.867 4.867m10.525 10.525L28 28m-4.304-4.304-4.867-4.867A3.996 3.996 0 0 0 20 16a4.001 4.001 0 0 0-4-4 4.017 4.017 0 0 0-2.829 1.172m5.657 5.656-5.655-5.655"/>
    </symbol>


    <symbol id="settings-icon" viewBox="0 0 32 32">
      <path stroke-linejoin="round" stroke-linecap="round" stroke-width="1.333" d="M12.792 5.253A1.5 1.5 0 0 1 14.272 4h3.457c.733 0 1.36.531 1.48 1.253l.284 1.708c.084.499.417.915.86 1.16.099.053.196.111.293.169.432.261.96.343 1.433.165l1.623-.608a1.498 1.498 0 0 1 1.826.654l1.728 2.996c.177.308.24.668.177 1.018s-.249.665-.523.89l-1.337 1.103c-.391.32-.584.817-.575 1.323.002.113.002.227 0 .34-.009.504.184 1 .573 1.32l1.34 1.104c.565.467.712 1.272.347 1.907l-1.731 2.996a1.499 1.499 0 0 1-1.826.655l-1.623-.608c-.473-.177-1-.096-1.435.165a8.597 8.597 0 0 1-.293.171c-.441.244-.775.66-.859 1.159l-.284 1.707a1.5 1.5 0 0 1-1.48 1.255h-3.459c-.733 0-1.36-.531-1.48-1.253l-.284-1.708c-.083-.499-.416-.915-.859-1.16a9.308 9.308 0 0 1-.293-.169c-.433-.261-.96-.343-1.435-.165l-1.623.608a1.5 1.5 0 0 1-1.825-.653L4.74 20.506a1.5 1.5 0 0 1 .347-1.908l1.339-1.103c.389-.32.583-.817.573-1.323a9.634 9.634 0 0 1 0-.34c.009-.504-.184-1-.573-1.32l-1.339-1.104a1.502 1.502 0 0 1-.347-1.907l1.729-2.996a1.497 1.497 0 0 1 1.826-.654l1.621.608c.475.177 1.001.096 1.435-.165.096-.059.195-.116.293-.171.443-.244.776-.66.859-1.159l.285-1.708z"/>
      <path stroke-linejoin="round" stroke-linecap="round" stroke-width="1.333" d="M20 16a4.003 4.003 0 0 1-4 4 4.003 4.003 0 0 1-4-4 4.003 4.003 0 0 1 4-4 4.003 4.003 0 0 1 4 4z"/>
    </symbol>

    <symbol id="logout-icon" viewBox="0 0 32 32">
      <path stroke-linejoin="round" stroke-linecap="round" stroke-width="1.333" d="M21 12V7a3.004 3.004 0 0 0-3-3h-8a3.004 3.004 0 0 0-3 3v18a3.004 3.004 0 0 0 3 3h8a3.004 3.004 0 0 0 3-3v-5m4 0 4-4m0 0-4-4m4 4H12"/>
    </symbol>

    <symbol id="arrow-icon" viewBox="0 0 32 32">
      <path d="M9.706 10.293a1.002 1.002 0 0 1 0 1.414L6.413 15H28a.997.997 0 0 1 1 1 1 1 0 0 1-1 1H6.413l3.293 3.293a1.002 1.002 0 0 1 .025 1.439.992.992 0 0 1-.725.293 1.001 1.001 0 0 1-.714-.318l-5-5a1.002 1.002 0 0 1 0-1.414l5-5a1.002 1.002 0 0 1 1.414 0z"/>
    </symbol>

    <symbol id="upload-icon" viewBox="0 0 32 32">
      <path stroke-linejoin="round" stroke-linecap="round" stroke-width="1.333" d="M4 22v3a3.004 3.004 0 0 0 3 3h18a3.004 3.004 0 0 0 3-3v-3M10 10l6-6m0 0 6 6m-6-6v18"/>
    </symbol>

    <symbol id="close-icon" viewBox="0 0 32 32">
      <path stroke-linejoin="round" stroke-linecap="round" stroke-width="3.429" d="M2.286 29.714 29.715 2.285m-27.429.001 27.429 27.429"/>
    </symbol>


    <symbol id="add-circle-icon" viewBox="0 0 32 32">
      <path stroke-linejoin="round" stroke-linecap="round" stroke-width="2.667" d="M16 12v8m4-4h-8m16 0a12 12 0 1 1-24.003.002A12 12 0 0 1 28.002 16z"/>
    </symbol>
    <symbol id="redo-icon" viewBox="0 0 32 32">
      <path stroke-linejoin="round" stroke-linecap="round" stroke-width="1.333" d="m22.483 5.983 2.249-2.251a2.5 2.5 0 0 1 3.536 3.536L14.109 21.427a6.002 6.002 0 0 1-2.529 1.507L8 24.001l1.067-3.58a5.992 5.992 0 0 1 1.507-2.529L22.483 5.984zm0 0L26 9.5m-2 9.167V25a3.004 3.004 0 0 1-3 3H7a3.004 3.004 0 0 1-3-3V11a3.004 3.004 0 0 1 3-3h6.333"/>
    </symbol>
    <symbol id="delete-icon" viewBox="0 0 32 32">
      <path stroke-linejoin="round" stroke-linecap="round" stroke-width="1.333" d="m19.653 12-.461 12m-6.384 0-.461-12m13.29-4.28c.456.069.909.143 1.363.221m-1.363-.221-1.424 18.511A3 3 0 0 1 21.221 29H10.778a2.996 2.996 0 0 1-2.992-2.769L6.362 7.72m19.275 0A63.917 63.917 0 0 0 21 7.191M6.363 7.72c-.456.068-.909.141-1.363.22m1.363-.22A63.917 63.917 0 0 1 11 7.191m10 0V5.97c0-1.573-1.213-2.885-2.787-2.935a69.515 69.515 0 0 0-4.427 0c-1.573.049-2.787 1.363-2.787 2.935v1.221m10.001 0a64.947 64.947 0 0 0-10 0"/>
    </symbol>
    <symbol id="menu-icon" viewBox="0 0 32 32">
      <path d="M16.706 21.707a1.002 1.002 0 0 1-1.414 0l-10-10a.996.996 0 0 1 .025-1.388 1.002 1.002 0 0 1 1.388-.025l9.293 9.293 9.293-9.293a1.013 1.013 0 0 1 .714-.318.993.993 0 0 1 .725.293.992.992 0 0 1 .293.725 1.001 1.001 0 0 1-.318.714l-10 10z"/>
    </symbol>


    <symbol id="calendar-icon" viewBox="0 0 32 32">
      <path stroke-linejoin="round" stroke-linecap="round" stroke-width="1.6" d="M9 4v3m14-3v3M4 25V10a3.004 3.004 0 0 1 3-3h18a3.004 3.004 0 0 1 3 3v15M4 25a3.004 3.004 0 0 0 3 3h18a3.004 3.004 0 0 0 3-3M4 25V15a3.004 3.004 0 0 1 3-3h18a3.004 3.004 0 0 1 3 3v10m-12-8h.011v.011H16V17zm0 3h.011v.011H16V20zm0 3h.011v.011H16V23zm-3-3h.011v.011H13V20zm0 3h.011v.011H13V23zm-3-3h.011v.011H10V20zm0 3h.011v.011H10V23zm9-6h.011v.011H19V17zm0 3h.011v.011H19V20zm0 3h.011v.011H19V23zm3-6h.011v.011H22V17zm0 3h.011v.011H22V20z"/>
    </symbol>
    <symbol id="statistics-icon" viewBox="0 0 32 32">
      <path stroke-linejoin="round" stroke-linecap="round" stroke-width="1.6" d="M5 4v15a3.004 3.004 0 0 0 3 3h3M5 4H3m2 0h22M11 22h10m-10 0-1.333 4M27 4h2m-2 0v15a3.004 3.004 0 0 1-3 3h-3m0 0 1.333 4M9.667 26h12.667M9.667 26 9 28m13.333-2L23 28M12 15v2m4-5v5m4-8v8"/>
    </symbol>
    <symbol id="tool-icon" viewBox="0 0 32 32">
      <path stroke-linejoin="round" stroke-linecap="round" stroke-width="1.6" d="M15.227 20.227 23 28a3.535 3.535 0 0 0 5.996-2.513 3.535 3.535 0 0 0-.995-2.488l-7.836-7.836m-4.938 5.064 3.328-4.04c.423-.512.987-.835 1.611-1.021.733-.219 1.551-.251 2.324-.187a6.006 6.006 0 0 0 6.486-5.404 6.013 6.013 0 0 0-.504-3.045l-4.368 4.369a4.01 4.01 0 0 1-3-3l4.368-4.368a6.008 6.008 0 0 0-7.912 2.943 6.01 6.01 0 0 0-.536 3.039c.121 1.435-.095 3.019-1.205 3.933l-.136.113m-.456 6.668L9.02 27.764a3.403 3.403 0 0 1-2.46 1.239A3.4 3.4 0 0 1 3 25.442a3.39 3.39 0 0 1 1.239-2.46l9.116-7.507-5.476-5.476H6l-3-5 2-2 5 3v1.879l5.68 5.68-2.327 1.916M24.5 24.5 21 21M6.489 25.5H6.5v.011h-.011V25.5z"/>
    </symbol>

    <symbol id="user-icon" viewBox="0 0 32 32">
      <path stroke-width="1.333" d="M31.333 16c0 8.468-6.865 15.333-15.333 15.333S.667 24.468.667 16 7.532.667 16 .667 31.333 7.532 31.333 16z"/>
      <path stroke-linejoin="round" stroke-linecap="round" stroke-width="1.333" d="M20.001 9.436c0 1.088-.421 2.132-1.172 2.901S17.061 13.539 16 13.539c-1.061 0-2.079-.432-2.829-1.202s-1.172-1.813-1.172-2.901c0-1.088.421-2.132 1.172-2.901S14.939 5.333 16 5.333c1.061 0 2.079.432 2.829 1.202s1.172 1.813 1.172 2.901zM8 24.881c.034-2.153.892-4.205 2.389-5.715S13.901 16.81 16 16.81c2.099 0 4.115.846 5.611 2.356s2.355 3.562 2.389 5.715a18.732 18.732 0 0 1-8 1.785c-2.855 0-5.564-.639-8-1.785z"/>
    </symbol>
    <symbol id="plus-icon" viewBox="0 0 24 24">
      <path fill-rule="evenodd" clip-rule="evenodd" d="M12 5.25a.75.75 0 0 1 .75.75v5.25H18a.75.75 0 1 1 0 1.5h-5.25V18a.75.75 0 1 1-1.5 0v-5.25H6a.75.75 0 1 1 0-1.5h5.25V6a.75.75 0 0 1 .75-.75Z" fill="#407BFF"/>
    </symbol>
    <symbol id="minus-icon" viewBox="0 0 24 24">
      <path fill-rule="evenodd" clip-rule="evenodd" d="M5.25 12a.75.75 0 0 1 .75-.75h12a.75.75 0 1 1 0 1.5H6a.75.75 0 0 1-.75-.75Z" fill="#407BFF"/>
    </symbol>

    <symbol id="glass-icon" viewBox="0 0 32 32">
      <path fill-rule="evenodd" d="M5.564 2.782l1.902 26.364v0.071h16.366l1.901-26.352v-0.084h-20.17zM23.162 28.48h-15.018l-1.426-19.748h0.783l1.289 17.403c0.009 0.092 0.049 0.177 0.116 0.24s0.154 0.098 0.244 0.098h0.030c0.099-0.007 0.186-0.054 0.246-0.124l0-0c0.055-0.063 0.088-0.147 0.088-0.238 0-0.010-0-0.019-0.001-0.029l0 0.001-1.289-17.351h16.362l-1.426 19.747zM24.637 7.995h-16.468l-0.283-3.847c-0.009-0.097-0.054-0.182-0.121-0.243l-0-0c-0.065-0.058-0.151-0.094-0.245-0.094-0.003 0-0.005 0-0.008 0h0c-0.099 0.010-0.185 0.058-0.245 0.128l-0 0.001c-0.056 0.065-0.090 0.151-0.090 0.244 0 0.008 0 0.015 0.001 0.023l-0-0.001 0.284 3.796h-0.795l-0.324-4.483h18.617l-0.324 4.477z"></path>
      <path fill-rule="evenodd" d="M11.36 12.384c0.236 0 0.467-0.071 0.662-0.204s0.349-0.322 0.44-0.542c0.057-0.137 0.091-0.296 0.091-0.463 0-0.334-0.133-0.636-0.35-0.857l0 0c-0.214-0.219-0.512-0.355-0.842-0.355-0.165 0-0.323 0.034-0.466 0.096l0.008-0.003c-0.223 0.095-0.405 0.249-0.533 0.442l-0.003 0.004c-0.126 0.189-0.201 0.422-0.201 0.672 0 0.334 0.134 0.636 0.35 0.857l-0-0c0.224 0.227 0.527 0.354 0.844 0.354zM11.36 10.697c0 0 0 0 0.001 0 0.195 0 0.363 0.12 0.432 0.291l0.001 0.003c0.023 0.054 0.036 0.117 0.036 0.182 0 0.132-0.053 0.251-0.138 0.338l0-0c-0.085 0.087-0.203 0.14-0.334 0.14-0.259 0-0.468-0.21-0.468-0.468 0-0.003 0-0.007 0-0.010v0.001c0-0 0-0.001 0-0.001 0-0.131 0.053-0.25 0.138-0.337l-0 0c0.089-0.089 0.208-0.139 0.332-0.139zM11.355 16.318c0.003 0.239 0.076 0.471 0.209 0.668s0.32 0.35 0.54 0.439c0.132 0.055 0.285 0.087 0.445 0.087 0.334 0 0.635-0.139 0.849-0.362l0-0c0.212-0.22 0.342-0.52 0.342-0.85 0-0.169-0.034-0.331-0.096-0.477l0.003 0.008c-0.094-0.223-0.246-0.407-0.438-0.537l-0.004-0.003c-0.185-0.125-0.412-0.2-0.658-0.2-0.334 0-0.636 0.139-0.85 0.361l-0 0c-0.212 0.218-0.342 0.516-0.342 0.844 0 0.007 0 0.014 0 0.021v-0.001zM13.013 16.318c-0.001 0.196-0.119 0.365-0.288 0.44l-0.003 0.001c-0.053 0.023-0.115 0.036-0.18 0.036-0.13 0-0.248-0.054-0.332-0.14l-0-0c-0.084-0.086-0.136-0.204-0.136-0.334 0-0.261 0.208-0.473 0.467-0.48h0.001c0.124 0 0.244 0.051 0.333 0.14s0.138 0.211 0.138 0.338zM19.834 16.348c0.236 0 0.467-0.071 0.662-0.204s0.349-0.321 0.44-0.542c0.057-0.137 0.090-0.296 0.090-0.462 0-0.334-0.133-0.636-0.349-0.857l0 0c-0.214-0.219-0.512-0.355-0.843-0.355-0.165 0-0.323 0.034-0.465 0.096l0.008-0.003c-0.222 0.095-0.404 0.249-0.532 0.441l-0.003 0.004c-0.126 0.189-0.202 0.422-0.202 0.673 0 0.333 0.133 0.635 0.35 0.856l-0-0c0.224 0.227 0.528 0.354 0.844 0.354zM19.834 14.667c0 0 0.001 0 0.001 0 0.196 0 0.363 0.121 0.432 0.292l0.001 0.003c0.022 0.054 0.035 0.116 0.035 0.182 0 0.132-0.053 0.252-0.139 0.339l0-0c-0.085 0.086-0.203 0.139-0.333 0.139-0.259 0-0.468-0.21-0.468-0.468 0-0.005 0-0.010 0-0.015l-0 0.001c0.001-0.131 0.054-0.248 0.14-0.334l-0 0c0.084-0.085 0.201-0.138 0.331-0.138h0zM15.677 14.067c0.236 0 0.467-0.071 0.663-0.204s0.349-0.322 0.439-0.542c0.058-0.137 0.091-0.296 0.091-0.463 0-0.333-0.133-0.636-0.349-0.857l0 0c-0.214-0.219-0.512-0.355-0.842-0.355-0.165 0-0.323 0.034-0.466 0.096l0.008-0.003c-0.223 0.095-0.405 0.248-0.533 0.441l-0.003 0.004c-0.126 0.189-0.201 0.422-0.201 0.672 0 0.334 0.134 0.636 0.35 0.857l-0-0c0.224 0.227 0.527 0.355 0.844 0.355zM15.677 12.379c0 0 0.001 0 0.001 0 0.196 0 0.363 0.121 0.432 0.292l0.001 0.003c0.022 0.054 0.035 0.116 0.035 0.181 0 0.131-0.052 0.251-0.138 0.338l0-0c-0.085 0.086-0.203 0.139-0.333 0.139-0.064 0-0.126-0.013-0.182-0.037l0.003 0.001c-0.172-0.073-0.291-0.241-0.291-0.436 0-0.002 0-0.003 0-0.005v0c-0-0.007-0.001-0.016-0.001-0.024 0-0.195 0.116-0.363 0.282-0.439l0.003-0.001c0.054-0.024 0.118-0.038 0.184-0.038 0.001 0 0.002 0 0.002 0h-0v0.025zM13.403 20.929c0.004 0.196 0.067 0.388 0.178 0.548s0.267 0.285 0.448 0.357c0.107 0.044 0.23 0.069 0.36 0.069 0.277 0 0.527-0.116 0.704-0.302l0-0c0.175-0.18 0.282-0.427 0.282-0.698 0-0.141-0.029-0.274-0.081-0.396l0.002 0.007c-0.078-0.184-0.203-0.335-0.361-0.442l-0.003-0.002c-0.153-0.104-0.341-0.167-0.544-0.167h-0c-0.275 0.008-0.522 0.125-0.698 0.309l-0 0c-0.178 0.185-0.287 0.437-0.287 0.715 0 0.001 0 0.001 0 0.002v-0zM14.388 20.662c0 0 0.001 0 0.001 0 0.109 0 0.203 0.067 0.241 0.163l0.001 0.002c0.013 0.030 0.020 0.065 0.020 0.102 0 0.073-0.029 0.14-0.077 0.189l0-0c-0.048 0.048-0.114 0.078-0.187 0.078-0.145 0-0.262-0.117-0.262-0.262 0-0.002 0-0.003 0-0.005v0c0-0.071 0.028-0.139 0.077-0.188 0.047-0.048 0.113-0.078 0.186-0.078h0zM18.17 19.816c0.203 0.007 0.403-0.047 0.574-0.157s0.307-0.268 0.388-0.457c0.053-0.121 0.084-0.262 0.084-0.41 0-0.281-0.111-0.536-0.292-0.723l0 0c-0.183-0.187-0.438-0.303-0.72-0.303-0.143 0-0.278 0.030-0.401 0.083l0.006-0.003c-0.187 0.080-0.344 0.216-0.453 0.388-0.101 0.157-0.161 0.349-0.161 0.555 0 0.28 0.111 0.535 0.292 0.721l-0-0c0.181 0.187 0.427 0.295 0.684 0.304zM18.17 18.549c0.070 0 0.137 0.028 0.187 0.078 0.048 0.049 0.077 0.115 0.077 0.188s-0.029 0.14-0.077 0.189l0-0c-0.047 0.048-0.114 0.078-0.187 0.078s-0.139-0.030-0.187-0.078l-0-0c-0.049-0.048-0.079-0.115-0.081-0.188v-0c0-0.074 0.030-0.141 0.079-0.19v0c0.047-0.047 0.112-0.076 0.184-0.076 0.001 0 0.003 0 0.004 0h-0zM20.253 11.538c0.2 0 0.396-0.060 0.562-0.172s0.296-0.273 0.372-0.46c0.048-0.116 0.076-0.25 0.076-0.392 0-0.283-0.113-0.539-0.296-0.727l0 0c-0.183-0.185-0.436-0.299-0.716-0.299-0.139 0-0.272 0.028-0.393 0.080l0.007-0.002c-0.188 0.081-0.343 0.211-0.451 0.374l-0.002 0.004c-0.107 0.16-0.171 0.358-0.171 0.57 0 0.282 0.113 0.539 0.296 0.725l-0-0c0.19 0.192 0.447 0.3 0.716 0.3zM20.253 10.271c0.022-0.006 0.046-0.010 0.072-0.010 0.103 0 0.192 0.060 0.235 0.146l0.001 0.002c0.017 0.034 0.027 0.075 0.027 0.118 0 0.087-0.041 0.164-0.104 0.213l-0.001 0c-0.044 0.034-0.099 0.054-0.159 0.054-0.026 0-0.051-0.004-0.074-0.011l0.002 0c-0.021 0.006-0.046 0.010-0.071 0.010-0.060 0-0.115-0.020-0.159-0.055l0.001 0c-0.064-0.049-0.105-0.126-0.105-0.212 0-0 0-0.001 0-0.001v0c0-0 0-0 0-0.001 0-0.086 0.040-0.163 0.103-0.212l0.001-0c0.043-0.033 0.098-0.053 0.158-0.053 0.026 0 0.051 0.004 0.075 0.011l-0.002-0zM10.369 27.191c-0.092 0.043-0.162 0.122-0.193 0.217l-0.001 0.003c-0.012 0.034-0.018 0.074-0.018 0.115 0 0.065 0.017 0.126 0.046 0.18l-0.001-0.002c0.063 0.118 0.184 0.197 0.323 0.2h0c0.003 0 0.007 0 0.010 0 0.055 0 0.108-0.013 0.154-0.037l-0.002 0.001c1.448-0.769 3.165-1.224 4.988-1.231h0.002c1.837 0.027 3.648 0.441 5.319 1.216 0.049 0.026 0.107 0.042 0.169 0.042 0.095 0 0.181-0.037 0.245-0.096l-0 0c0.074-0.068 0.12-0.165 0.12-0.273 0-0.050-0.010-0.099-0.028-0.142l0.001 0.002c-0.036-0.091-0.104-0.163-0.19-0.204l-0.002-0.001c-1.651-0.785-3.584-1.255-5.623-1.283l-0.009-0c-1.845 0.002-3.664 0.444-5.308 1.292z"></path>
    </symbol>
  </defs>
</svg>
