<svg xmlns="http://www.w3.org/2000/svg" width="518" height="386" fill="none">
  <g clip-path="url(#a)">
    <path fill="#F5F5F5" d="M259 386c110.937 0 200.87-5.25 200.87-11.727 0-6.476-89.933-11.727-200.87-11.727-110.938 0-200.87 5.251-200.87 11.727C58.13 380.75 148.062 386 259 386Z"/>
    <path fill="#407BFF" d="M142.243 292.403a3.675 3.675 0 0 1 3.936-3.18c8.869-.135 17.167 6.133 24.864 12.856 1.71 1.481 3.564 3.014 5.481 1.461a3.865 3.865 0 0 0 1.243-1.886 6.952 6.952 0 0 0 0-3.688 8.042 8.042 0 0 0-1.399-2.745c-3.346-4.403-7.417-6.516-10.722-11.064a40.187 40.187 0 0 1-4.569-8.391c-1.036-2.61-3.108-6.827-2.279-10.359.922-4.227 4.082-3.864 5.998-3.284 6.061 1.813 11.717 6.133 16.856 11.509 5.48 5.718 10.443 12.607 15.385 19.455 1.864 2.6 3.833 5.273 6.216 6.216 2.382.942 5.397-.581 6.402-4.331 1.005-3.75-.176-8.059-.425-11.789a54.444 54.444 0 0 1 .643-13.322 18.143 18.143 0 0 1 2.31-6.588c2.673-3.916 6.63-2.538 9.22.424a27.206 27.206 0 0 1 4.517 8.288 95.252 95.252 0 0 1 5.18 25.743c.394 5.439 1.223 11.105 3.461 15.321 3.615 6.817 10.36 6.278 15.591 2.704 9.107-6.215 16.131-20.263 18.006-35.968.611-5.117.767-10.649 2.631-14.938 1.627-3.708 5.802-6.215 7.843-2.217.822 2 1.052 4.193.663 6.32a44.861 44.861 0 0 1-1.544 6.215c-1.036 3.522-2.072 10.121.726 12.183a3.354 3.354 0 0 0 2.807.311c9.158-1.907 17.674-10.525 23.269-22.553a71.195 71.195 0 0 0 4.62-14.099c.674-2.963.953-6.143 1.699-9.085a16.569 16.569 0 0 1 2.839-6.412c3.564-4.268 11.79-2.259 12.256 6.889.28 5.293-1.129 10.473-1.647 15.653-.322 3.232 1.678 3.211 3.17 3.107 7.148-.725 13.468-7.935 19.072-15.435 6.662-8.919 14.038-20.501 23.134-20.843 2.072-.073 5.522.197 6.765 3.398a10.643 10.643 0 0 1 0 6.008c-1.844 7.645-7.252 11.592-11.396 15.373a193.41 193.41 0 0 0-30.593 36.818c-1.315 2.072-2.673 5.49-1.419 7.521a2.27 2.27 0 0 0 2.331 1.035c4.279-.331 8.288-3.729 12.194-6.547 3.905-2.817 8.34-5.283 12.432-3.159a11.157 11.157 0 0 1 3.234 2.94 11.161 11.161 0 0 1 1.853 3.959 16.24 16.24 0 0 1 .341 7.707c-1.502 7.034-7.998 10.194-11.572 13.664a119.829 119.829 0 0 0-13.468 15.426c-3.729 5.107-7.252 10.701-10.981 15.715-13.468 17.952-32.116 20.615-48.692 22.697-18.037 2.258-36.115 1.036-54.048-1.336-13.044-1.741-25.9-5.449-38.633-9.852-4.372-1.585-8.713-3.315-13.002-5.366-4.61-2.196-11.396-3.553-13.167-12.204-.373-1.864.062-3.377 1.295-4.071 3.823-2.175 9.272.736 12.867 2.652 4.962 2.652 9.666 6.433 14.763 8.474a6.746 6.746 0 0 0 5.304.28 3.934 3.934 0 0 0 1.958-1.792 4.776 4.776 0 0 0 .373-3.409 4.064 4.064 0 0 0-1.036-1.626 98.578 98.578 0 0 0-32.24-21.982c-3.885-1.668-7.853-3.036-11.593-5.398a26.065 26.065 0 0 1-7.666-7.251c-1.741-2.787-4.538-7.708-3.657-12.152ZM340.398 216.251a4.583 4.583 0 0 1-5.457.865 4.588 4.588 0 0 1-2.333-5.008c3.574-17.352 11.344-29.97 20.585-23.423 6.9 4.879-3.916 18.336-12.795 27.566Z" opacity=".1"/>
    <path fill="#407BFF" d="M315.328 224.353a19.559 19.559 0 0 0 10.039-15.539l7.003-85.31a31.565 31.565 0 0 0-8.381-24.137l-21.58-23.112a12.586 12.586 0 0 1-3.326-9.572l1.036-12.493-55.851-4.59-1.036 12.494a12.52 12.52 0 0 1-4.838 8.899l-25.071 19.3a31.59 31.59 0 0 0-12.204 22.448l-7.014 85.309a19.551 19.551 0 0 0 7.366 16.948 19.522 19.522 0 0 0-10.028 15.539l-8.941 108.773a19.581 19.581 0 0 0 17.902 21.102l92.204 7.573a19.544 19.544 0 0 0 14.258-4.574 19.557 19.557 0 0 0 6.846-13.316l8.94-108.774a19.537 19.537 0 0 0-7.324-16.968Z" opacity=".3"/>
    <path fill="#407BFF" d="m244.284 49.62-.792 9.632 55.839 4.59.792-9.632-55.839-4.59Z" opacity=".3"/>
    <path fill="#fff" d="m323.471 101.594-21.58-23.132s-13.914.6-3.108 17.662c9.21 14.431 25.257 12.183 24.688 5.47Z" opacity=".3"/>
    <path fill="#407BFF" d="M182.512 339.269a19.581 19.581 0 0 0 17.902 21.102l92.204 7.573a19.561 19.561 0 0 0 21.103-17.891l-131.209-10.784Z" opacity=".2"/>
    <path fill="#407BFF" d="M319.441 103.594a25.378 25.378 0 0 1 6.734 19.382l-7.004 85.32a13.344 13.344 0 0 1-6.858 10.587l-8.153 4.517 7.304 5.79a13.33 13.33 0 0 1 5.034 11.561l-8.94 108.774a13.353 13.353 0 0 1-14.37 12.224l-92.204-7.573a13.386 13.386 0 0 1-9.118-4.652 13.38 13.38 0 0 1-3.158-9.737l8.941-108.773a13.334 13.334 0 0 1 6.847-10.598l8.154-4.517-7.252-5.791a13.33 13.33 0 0 1-5.035-11.561l7.014-85.309a25.39 25.39 0 0 1 9.81-18.025c8.288-5.356 30.045 7.977 55.52 10.069 25.475 2.093 41.409-4.371 46.734-1.688Z" opacity=".3"/>
    <path fill="#407BFF" d="M272.655 105.293c-25.465-2.072-47.242-15.436-55.53-10.08 14.504 7.977 31.08 12.918 55.126 14.897 24.045 1.978 47.189-6.516 47.189-6.516-5.325-2.683-21.321 3.801-46.785 1.699ZM194.116 198.05a19.551 19.551 0 0 0 7.366 16.948l113.846 9.324a19.559 19.559 0 0 0 10.039-15.54L194.116 198.05Z" opacity=".2"/>
    <path fill="#407BFF" d="m301.29 38.932-55.682-4.592a4.234 4.234 0 0 0-4.569 3.875l-1.111 13.546a4.24 4.24 0 0 0 3.877 4.57l55.683 4.593a4.235 4.235 0 0 0 4.569-3.875l1.11-13.546a4.24 4.24 0 0 0-3.877-4.571Z"/>
    <path fill="#fff" d="M246.631 54.242a.521.521 0 0 1-.454-.358.51.51 0 0 1-.023-.202l1.305-16.388a.52.52 0 0 1 1.036.083l-1.346 16.378a.516.516 0 0 1-.518.487ZM256.731 55.07a.519.519 0 0 1-.476-.559l1.347-16.378a.525.525 0 0 1 .753-.422.504.504 0 0 1 .272.505l-1.378 16.378a.528.528 0 0 1-.518.477ZM266.822 55.94a.519.519 0 0 1-.476-.559l1.346-16.378a.54.54 0 0 1 .56-.477.518.518 0 0 1 .476.56l-1.346 16.378a.533.533 0 0 1-.181.355.518.518 0 0 1-.379.122ZM276.923 56.728a.522.522 0 0 1-.454-.358.51.51 0 0 1-.023-.201l1.347-16.379a.529.529 0 0 1 .559-.476.505.505 0 0 1 .447.358c.02.065.027.134.02.201l-1.347 16.378a.512.512 0 0 1-.549.477ZM286.972 57.557a.517.517 0 0 1-.476-.56l1.347-16.378a.55.55 0 0 1 .559-.477.523.523 0 0 1 .454.358.529.529 0 0 1 .023.202l-1.347 16.378a.52.52 0 0 1-.178.358.509.509 0 0 1-.382.119ZM297.115 58.385a.516.516 0 0 1-.477-.56l1.305-16.388a.53.53 0 0 1 .56-.476.516.516 0 0 1 .466.56l-1.336 16.388a.529.529 0 0 1-.518.476Z" opacity=".2"/>
    <path fill="#407BFF" d="M211.344 169.552c-1.574-8.713-14.265-8.091-14.991.725l-2.279 27.773a19.551 19.551 0 0 0 7.366 16.948 19.516 19.516 0 0 0-10.028 15.539l-8.941 108.773a19.58 19.58 0 0 0 17.902 21.102l23.828 1.958a17.187 17.187 0 0 0 18.316-20.18l-31.173-172.638Z" opacity=".2"/>
    <path fill="#407BFF" d="M303.03 311.982a10.13 10.13 0 0 1-17.824 5.723 10.13 10.13 0 1 1 15.449-13.105 10.137 10.137 0 0 1 2.375 7.382ZM270.821 272.752a7.166 7.166 0 0 1-9.113 6.309 7.167 7.167 0 1 1 9.113-6.309ZM240.849 185.433a7.165 7.165 0 0 1-7.423-8.225 7.165 7.165 0 0 1 5.356-5.892 7.164 7.164 0 0 1 7.495 2.689 7.169 7.169 0 0 1-5.428 11.428ZM260.399 142.576a5.08 5.08 0 0 1-5.274-5.817 5.075 5.075 0 0 1 10.092.513 5.076 5.076 0 0 1-4.818 5.304ZM291.852 241.766a2.965 2.965 0 0 1-5.896.091 2.965 2.965 0 0 1 1.502-2.927 2.961 2.961 0 0 1 1.68-.364 2.976 2.976 0 0 1 2.714 3.2Z" opacity=".3"/>
    <path fill="#fff" d="M238.187 322.818h-.497a6.002 6.002 0 0 1-4.144-2.072 5.934 5.934 0 0 1-1.399-4.371 5.996 5.996 0 0 1 4.029-5.176 6.007 6.007 0 0 1 3.419-.142 5.996 5.996 0 0 1-1.46 11.813l.052-.052Zm0-11.229a5.18 5.18 0 0 0-2.148 9.881 5.185 5.185 0 0 0 6.291-1.558 5.182 5.182 0 0 0-.154-6.479 5.178 5.178 0 0 0-3.554-1.823l-.435-.021ZM302.263 201.593h-.362a4.364 4.364 0 0 1-3.989-4.693 4.363 4.363 0 0 1 4.704-3.988 4.361 4.361 0 0 1 3.988 4.693 4.41 4.41 0 0 1-1.523 2.973 4.339 4.339 0 0 1-2.818 1.015Zm-3.574-4.651a3.59 3.59 0 0 0 1.952 3.457 3.588 3.588 0 0 0 5.038-4.296 3.585 3.585 0 0 0-.681-1.223 3.53 3.53 0 0 0-2.486-1.16 3.57 3.57 0 0 0-3.481 1.929 3.579 3.579 0 0 0-.383 1.345l.041-.052ZM235.327 109.747h-.155a2.074 2.074 0 0 1-1.865-2.196 2.068 2.068 0 0 1 1.368-1.816 2.078 2.078 0 0 1 2.741 1.593 2.077 2.077 0 0 1-.901 2.087 2.075 2.075 0 0 1-1.136.342l-.052-.01Zm-1.253-2.134a1.246 1.246 0 0 0 .678 1.214 1.255 1.255 0 0 0 1.766-1.496 1.25 1.25 0 0 0-1.087-.868 1.239 1.239 0 0 0-1.357 1.15ZM281.14 163.398h-.435a5.169 5.169 0 0 1-3.548-1.816 5.18 5.18 0 0 1-1.208-3.799 5.184 5.184 0 0 1 8.974-3.049 5.178 5.178 0 0 1-3.794 8.685l.011-.021Zm0-9.634a4.38 4.38 0 0 0-2.849 1.036 4.43 4.43 0 0 0-1.554 3.004 4.41 4.41 0 0 0 .352 2.118 4.426 4.426 0 0 0 5.407 2.45 4.422 4.422 0 0 0 .679-8.139 4.374 4.374 0 0 0-1.662-.469h-.373Z" opacity=".7"/>
    <path fill="#fff" d="m323.636 208.689 6.693-81.352a3.973 3.973 0 0 0-2.146-3.855 3.985 3.985 0 0 0-1.491-.423 3.966 3.966 0 0 0-2.892.924 3.952 3.952 0 0 0-1.386 2.702l-6.693 81.352a16.396 16.396 0 0 1-8.443 13.052l-4.072 2.269 3.657 2.89a16.458 16.458 0 0 1 6.216 14.255l-8.94 108.773c-.539 6.527-4.642 9.707-10.412 12.245a1.814 1.814 0 0 0 .58 3.46 16.466 16.466 0 0 0 17.747-15.052l8.94-108.773a16.435 16.435 0 0 0-6.216-14.255L311.121 224l4.072-2.258a16.432 16.432 0 0 0 8.443-13.053Z" opacity=".3"/>
    <path fill="#407BFF" d="M431.173 335.115c-1.119-5.076-15.084-2.072-17.975-1.606a84.386 84.386 0 0 0-16.41 4.734c-5.832 2.29-12.608 5.657-18.648 2.176-3.491-2.01 8.63-5.977 9.728-6.381a88.61 88.61 0 0 0 14.856-6.817c1.917-1.139 5.626-3.864 4.03-6.63-1.326-2.289-6.081-2.072-8.971-1.72a106.804 106.804 0 0 0-25.579 6.413 253.227 253.227 0 0 0-23.476 10.742 30.232 30.232 0 0 1-9.521 3.429c-3.646.518-8.112-.259-9.552-2.279-1.44-2.02.415-4.382.84-6.412.6-2.428.348-4.988-.715-7.252a7.66 7.66 0 0 0-3.367-3.543c-3.947-2.071-9.915-1.305-13.883.332a22.807 22.807 0 0 0-6.931 4.579 27.973 27.973 0 0 0-8.163 14.037 13.067 13.067 0 0 1-5.491 8.36c-5.553 3.74-15.727 3.522-23.507 1.647-13.582-3.222-23.942-10.753-26.439-19.258-1.212-4.051-1.802-8.288-7.252-9.873-3.522-1.036-10.898-.31-9.324 4.144a13.869 13.869 0 0 0 2.217 3.357c1.44 1.895 2.974 5.469-1.305 6.619a13.238 13.238 0 0 1-4.216.207c-13.759-.922-26.418-5.511-34.624-11.975a27.897 27.897 0 0 1-6.692-7.593c-.974-1.606-1.326-3.336-2.393-4.921a9.511 9.511 0 0 0-4.144-3.45c-5.284-2.269-17.695-1.088-18.565 3.885-.467 2.693 1.212 5.615 2.072 8.173.154.323.191.69.103 1.036-.248.653-1.233.84-2.072.891-11.095.736-21.859-3.574-31.173-8.07-9.863-4.765-20.72-10.97-34.426-11.043a26.575 26.575 0 0 0-8.402.964 4.931 4.931 0 0 0-1.886.974 2.409 2.409 0 0 0-.456 2.672 6.214 6.214 0 0 0 1.927 2.3c4.144 3.377 9.946 4.745 15.24 6.485a260.38 260.38 0 0 1 45.356 19.631c1.461.818 4.051 2.714 1.999 4.144-2.051 1.429-6.216.507-8.671.103-4.455-.725-8.733-1.885-13.074-2.973-5.74-1.45-12.432-2.766-18.648-1.564-3.284.632-6.216 1.979-7.76 3.802a3.584 3.584 0 0 0-.663 4.144c2.134 3.801 11.862 5.438 17.177 7.251a173.206 173.206 0 0 1 19.922 8.215c5.522 2.735 10.65 5.729 16.245 8.412 19.984 9.582 47.894 10.815 72.851 11.747 27.092 1.036 54.307.156 81.326-1.346 19.684-1.098 39.006-3.264 58.296-5.812 5.543-.725 11.054-1.616 16.576-2.372a103.921 103.921 0 0 0 16.576-3.284 14.005 14.005 0 0 0 5.335-2.673c1.482-1.378 1.948-3.18-.704-3.698-5.553-1.109-11.272.155-16.7 1.139a323.394 323.394 0 0 0-18.11 3.864 70.843 70.843 0 0 1-8.288 1.689 20.827 20.827 0 0 1-8.402-.539c-.891-.279-1.864-.777-1.916-1.564-.052-.787.694-1.285 1.461-1.585 11.178-4.434 23.051-7.252 35.006-9.841 8.112-1.761 16.369-2.839 24.543-4.217 7.449-1.253 15.302-1.543 21.756-6.267a7.449 7.449 0 0 0 2.859-3.45 4.14 4.14 0 0 0 .197-2.289ZM110.594 293.17c-3.036-8.629-13.852-23.91-16.13-14.887-1.223 5.066 16.13 14.887 16.13 14.887ZM382.211 310.159c5.781-5.273 12.992-8.411 13.924-3.771.871 4.392-13.924 3.771-13.924 3.771ZM145.04 268.224c-3.958-2.072-7.045-5.397-4.724-6.785 2.32-1.388 4.724 6.785 4.724 6.785Z" opacity=".3"/>
  </g>
  <defs>
    <clipPath id="a">
      <path fill="#fff" d="M0 0h518v386H0z"/>
    </clipPath>
  </defs>
</svg>
