<svg xmlns="http://www.w3.org/2000/svg" width="280" height="208" fill="none">
  <g clip-path="url(#a)">
    <path fill="#F5F5F5" d="M140 208c59.966 0 108.578-2.829 108.578-6.319 0-3.49-48.612-6.319-108.578-6.319s-108.579 2.829-108.579 6.319c0 3.49 48.613 6.319 108.579 6.319Z"/>
    <path fill="#407BFF" d="M76.888 157.565c.067-.503.325-.961.721-1.28.396-.319.9-.474 1.407-.434 4.793-.073 9.279 3.304 13.44 6.927.924.799 1.926 1.625 2.962.787a2.08 2.08 0 0 0 .672-1.016c.18-.65.18-1.336 0-1.987a4.331 4.331 0 0 0-.756-1.479c-1.809-2.373-4.01-3.511-5.796-5.962-1-1.404-1.83-2.922-2.47-4.522-.56-1.406-1.68-3.678-1.231-5.582.498-2.277 2.206-2.082 3.242-1.769 3.276.977 6.334 3.304 9.111 6.201 2.963 3.082 5.645 6.794 8.316 10.484 1.008 1.401 2.072 2.841 3.36 3.349 1.288.508 2.918-.312 3.461-2.333.543-2.021-.095-4.343-.23-6.353a29.253 29.253 0 0 1 .348-7.178 9.781 9.781 0 0 1 1.248-3.551c1.445-2.11 3.584-1.367 4.984.229a14.656 14.656 0 0 1 2.442 4.466 51.219 51.219 0 0 1 2.8 13.872c.213 2.93.661 5.984 1.87 8.256 1.955 3.673 5.6 3.383 8.428 1.457 4.923-3.349 8.72-10.919 9.733-19.382.331-2.757.415-5.738 1.423-8.049.879-1.999 3.136-3.35 4.239-1.195a6.057 6.057 0 0 1 .358 3.405 24.013 24.013 0 0 1-.834 3.35c-.56 1.898-1.12 5.454.392 6.564a1.806 1.806 0 0 0 1.517.168c4.951-1.027 9.554-5.672 12.578-12.153a38.277 38.277 0 0 0 2.498-7.597c.364-1.597.515-3.31.918-4.896a8.923 8.923 0 0 1 1.534-3.455c1.927-2.3 6.373-1.217 6.625 3.712.151 2.853-.61 5.644-.89 8.435-.174 1.741.907 1.73 1.713 1.674 3.864-.39 7.28-4.276 10.31-8.317 3.601-4.806 7.588-11.047 12.505-11.232 1.12-.039 2.985.107 3.657 1.831a5.735 5.735 0 0 1 0 3.238c-.997 4.12-3.92 6.247-6.16 8.284a104.236 104.236 0 0 0-16.537 19.839c-.711 1.117-1.445 2.959-.767 4.053a1.229 1.229 0 0 0 1.26.558c2.312-.178 4.48-2.009 6.591-3.528 2.111-1.518 4.508-2.847 6.72-1.702a5.997 5.997 0 0 1 2.749 3.718 8.715 8.715 0 0 1 .185 4.153c-.812 3.79-4.323 5.493-6.255 7.363a64.561 64.561 0 0 0-7.28 8.312c-2.016 2.752-3.92 5.766-5.936 8.468-7.28 9.674-17.36 11.109-26.32 12.231-9.75 1.217-19.522.558-29.215-.72-7.051-.938-14-2.937-20.883-5.309-2.363-.854-4.71-1.786-7.028-2.892-2.492-1.183-6.16-1.914-7.117-6.576-.202-1.004.033-1.819.7-2.193 2.066-1.173 5.012.396 6.955 1.429 2.682 1.429 5.225 3.466 7.98 4.566a3.66 3.66 0 0 0 2.867.151c.455-.19.829-.532 1.059-.966a2.567 2.567 0 0 0 .201-1.837 2.182 2.182 0 0 0-.56-.876 53.294 53.294 0 0 0-17.427-11.846c-2.1-.898-4.245-1.635-6.266-2.908a14.068 14.068 0 0 1-4.144-3.908c-.941-1.501-2.453-4.153-1.977-6.547ZM183.999 116.529a2.49 2.49 0 0 1-2.95.466 2.472 2.472 0 0 1-1.261-2.699c1.932-9.35 6.132-16.149 11.127-12.621 3.73 2.629-2.117 9.881-6.916 14.854Z" opacity=".1"/>
    <path fill="#407BFF" d="M170.447 120.895a10.56 10.56 0 0 0 3.77-3.507 10.514 10.514 0 0 0 1.657-4.867l3.785-45.97a16.946 16.946 0 0 0-.885-6.98 16.993 16.993 0 0 0-3.645-6.026L163.464 41.09a6.769 6.769 0 0 1-1.797-5.158l.56-6.732-30.19-2.473-.56 6.732a6.74 6.74 0 0 1-2.615 4.795l-13.552 10.4a17.042 17.042 0 0 0-4.58 5.354 16.986 16.986 0 0 0-2.017 6.743l-3.791 45.969a10.491 10.491 0 0 0 .84 5.065 10.534 10.534 0 0 0 3.141 4.068 10.543 10.543 0 0 0-3.768 3.506 10.501 10.501 0 0 0-1.653 4.867l-4.832 58.614a10.527 10.527 0 0 0 2.478 7.681 10.596 10.596 0 0 0 7.199 3.69l49.84 4.08a10.597 10.597 0 0 0 7.707-2.464 10.515 10.515 0 0 0 3.7-7.176l4.833-58.614a10.516 10.516 0 0 0-3.96-9.143Z" opacity=".3"/>
    <path fill="#407BFF" d="m132.045 26.738-.428 5.191 30.183 2.474.428-5.191-30.183-2.474Z" opacity=".3"/>
    <path fill="#fff" d="M174.849 54.745 163.184 42.28s-7.521.324-1.68 9.518c4.978 7.776 13.653 6.564 13.345 2.947Z" opacity=".3"/>
    <path fill="#407BFF" d="M98.655 182.819a10.528 10.528 0 0 0 2.478 7.681 10.598 10.598 0 0 0 7.199 3.69l49.84 4.08a10.597 10.597 0 0 0 7.707-2.464 10.525 10.525 0 0 0 3.7-7.176l-70.924-5.811Z" opacity=".2"/>
    <path fill="#407BFF" d="M172.67 55.822a13.65 13.65 0 0 1 3.64 10.445l-3.785 45.975a7.2 7.2 0 0 1-3.707 5.705l-4.408 2.434 3.948 3.121a7.163 7.163 0 0 1 2.722 6.229l-4.833 58.614a7.188 7.188 0 0 1-2.517 4.895 7.233 7.233 0 0 1-5.25 1.692l-49.84-4.081a7.24 7.24 0 0 1-4.929-2.506 7.202 7.202 0 0 1-1.707-5.247l4.833-58.614a7.168 7.168 0 0 1 1.131-3.319 7.217 7.217 0 0 1 2.57-2.392l4.408-2.433-3.92-3.121a7.165 7.165 0 0 1-2.722-6.23l3.791-45.97c.157-1.897.71-3.741 1.624-5.414a13.693 13.693 0 0 1 3.679-4.298c4.48-2.887 16.24 4.298 30.011 5.425 13.77 1.128 22.383-2.355 25.261-.91Z" opacity=".3"/>
    <path fill="#407BFF" d="M147.381 56.738c-13.765-1.116-25.536-8.318-30.016-5.431 7.84 4.298 16.8 6.96 29.797 8.027 12.998 1.066 25.508-3.512 25.508-3.512-2.878-1.445-11.524 2.05-25.289.916ZM104.927 106.721a10.527 10.527 0 0 0 3.982 9.133l61.538 5.024a10.557 10.557 0 0 0 3.77-3.506 10.505 10.505 0 0 0 1.656-4.867l-70.946-5.784Z" opacity=".2"/>
    <path fill="#407BFF" d="m162.859 20.979-30.098-2.474a2.287 2.287 0 0 0-2.47 2.087l-.6 7.3a2.286 2.286 0 0 0 2.095 2.463l30.099 2.474a2.287 2.287 0 0 0 2.47-2.088l.6-7.299a2.287 2.287 0 0 0-2.096-2.463Z"/>
    <path fill="#fff" d="M133.313 29.229a.277.277 0 0 1-.191-.098.275.275 0 0 1-.066-.204l.705-8.83a.28.28 0 0 1 .303-.258.28.28 0 0 1 .257.302l-.728 8.825a.277.277 0 0 1-.28.263ZM138.773 29.675a.277.277 0 0 1-.192-.097.285.285 0 0 1-.065-.204l.728-8.826a.285.285 0 0 1 .302-.257.275.275 0 0 1 .252.302l-.745 8.826a.284.284 0 0 1-.28.256ZM144.228 30.144a.282.282 0 0 1-.245-.192.267.267 0 0 1-.013-.11l.728-8.825a.293.293 0 0 1 .303-.256.284.284 0 0 1 .245.192.285.285 0 0 1 .012.109l-.728 8.825a.296.296 0 0 1-.029.106.284.284 0 0 1-.164.139.28.28 0 0 1-.109.012ZM149.688 30.568a.282.282 0 0 1-.245-.192.267.267 0 0 1-.013-.109l.728-8.826a.286.286 0 0 1 .303-.256.269.269 0 0 1 .189.097.283.283 0 0 1 .063.204l-.728 8.826a.268.268 0 0 1-.095.19.276.276 0 0 1-.202.066ZM155.12 31.015a.282.282 0 0 1-.245-.193.268.268 0 0 1-.013-.108l.728-8.826a.297.297 0 0 1 .303-.257.277.277 0 0 1 .191.098c.024.027.042.06.054.095a.286.286 0 0 1 .012.109l-.728 8.825a.263.263 0 0 1-.028.107.275.275 0 0 1-.274.15ZM160.602 31.462a.282.282 0 0 1-.245-.193.286.286 0 0 1-.012-.109l.705-8.83a.286.286 0 0 1 .303-.258.28.28 0 0 1 .252.302l-.723 8.83a.283.283 0 0 1-.28.258Z" opacity=".2"/>
    <path fill="#407BFF" d="M114.24 91.365c-.851-4.695-7.711-4.36-8.103.39l-1.232 14.966a10.502 10.502 0 0 0 .839 5.065 10.537 10.537 0 0 0 3.142 4.068 10.543 10.543 0 0 0-3.768 3.506 10.501 10.501 0 0 0-1.653 4.867l-4.832 58.614a10.525 10.525 0 0 0 2.478 7.681 10.588 10.588 0 0 0 7.198 3.69l12.88 1.055a9.317 9.317 0 0 0 7.638-3.006 9.236 9.236 0 0 0 2.263-7.868l-16.85-93.028Z" opacity=".2"/>
    <path fill="#407BFF" d="M163.8 168.115a5.453 5.453 0 0 1-1.169 2.947 5.491 5.491 0 0 1-8.466.137 5.443 5.443 0 0 1-.695-6.026 5.47 5.47 0 0 1 5.318-2.947 5.482 5.482 0 0 1 3.728 1.911 5.45 5.45 0 0 1 1.284 3.978ZM146.389 146.975a3.871 3.871 0 0 1-2.676 3.363 3.884 3.884 0 0 1-4.141-1.178 3.861 3.861 0 0 1-.895-2.058 3.861 3.861 0 0 1 1.968-3.818 3.884 3.884 0 0 1 4.835.879c.665.78.992 1.792.909 2.812ZM130.189 99.922a3.883 3.883 0 0 1-3.687-2.214 3.86 3.86 0 0 1 2.569-5.393 3.887 3.887 0 0 1 4.051 1.45 3.853 3.853 0 0 1-1.464 5.794c-.461.216-.96.34-1.469.363ZM140.756 76.829a2.75 2.75 0 0 1-2.618-1.563 2.73 2.73 0 0 1 1.818-3.824 2.751 2.751 0 0 1 2.871 1.03 2.733 2.733 0 0 1-.177 3.464 2.747 2.747 0 0 1-1.894.892ZM157.758 130.278a1.598 1.598 0 0 1-2.037 1.401 1.592 1.592 0 0 1-.984-2.263 1.599 1.599 0 0 1 2.644-.302c.275.323.411.742.377 1.164Z" opacity=".3"/>
    <path fill="#fff" d="M128.75 173.954h-.269a3.245 3.245 0 0 1-2.24-1.117 3.185 3.185 0 0 1-.756-2.355 3.232 3.232 0 0 1 2.178-2.789 3.25 3.25 0 0 1 3.437.866 3.224 3.224 0 0 1-.607 4.894 3.247 3.247 0 0 1-1.771.529l.028-.028Zm0-6.051a2.803 2.803 0 0 0-2.723 2.198 2.786 2.786 0 0 0 1.561 3.126 2.804 2.804 0 0 0 3.401-.839 2.792 2.792 0 0 0 .574-1.761 2.794 2.794 0 0 0-1.519-2.414c-.33-.168-.69-.27-1.059-.299l-.235-.011ZM163.385 108.631h-.196a2.363 2.363 0 0 1-1.602-.821 2.347 2.347 0 0 1-.554-1.708 2.349 2.349 0 0 1 .825-1.599 2.364 2.364 0 0 1 3.32.27c.404.474.603 1.088.554 1.708a2.378 2.378 0 0 1-.823 1.603 2.36 2.36 0 0 1-1.524.547Zm-1.932-2.507a1.933 1.933 0 0 0 2.159 2.059 1.933 1.933 0 0 0 1.252-3.17 1.913 1.913 0 0 0-1.344-.625 1.928 1.928 0 0 0-1.412.45 1.922 1.922 0 0 0-.677 1.314l.022-.028ZM127.204 59.138h-.084a1.12 1.12 0 0 1-1.008-1.183 1.12 1.12 0 0 1 1.934-.692c.149.159.249.358.287.572a1.123 1.123 0 0 1-1.101 1.309l-.028-.006Zm-.678-1.15a.68.68 0 0 0 .367.655.677.677 0 1 0-.367-.655ZM151.967 88.049h-.235a2.803 2.803 0 0 1-2.45-1.937 2.781 2.781 0 0 1 .466-2.567 2.806 2.806 0 0 1 4.264-.165 2.781 2.781 0 0 1-.524 4.221 2.804 2.804 0 0 1-1.526.459l.005-.011Zm0-5.192a2.374 2.374 0 0 0-1.54.559c-.483.407-.785.99-.84 1.618-.031.39.034.783.19 1.142a2.389 2.389 0 0 0 1.765 1.395 2.398 2.398 0 0 0 2.145-.685 2.384 2.384 0 0 0 .111-3.197 2.357 2.357 0 0 0-1.629-.832h-.202Z" opacity=".7"/>
    <path fill="#fff" d="m174.938 112.454 3.618-43.837a2.139 2.139 0 0 0-1.966-2.305 2.144 2.144 0 0 0-2.084 1.151c-.128.25-.206.523-.229.802l-3.617 43.838a8.819 8.819 0 0 1-1.393 4.09 8.848 8.848 0 0 1-3.171 2.943l-2.201 1.223 1.977 1.557a8.87 8.87 0 0 1 2.648 3.42 8.84 8.84 0 0 1 .712 4.261l-4.833 58.614c-.291 3.517-2.509 5.231-5.628 6.598a.981.981 0 0 0-.566 1.053.98.98 0 0 0 .88.812 8.918 8.918 0 0 0 6.48-2.077 8.857 8.857 0 0 0 3.112-6.034l4.833-58.614a8.832 8.832 0 0 0-3.36-7.681l-1.977-1.563 2.201-1.217a8.875 8.875 0 0 0 3.17-2.945 8.835 8.835 0 0 0 1.394-4.089Z" opacity=".3"/>
    <path fill="#407BFF" d="M233.066 180.58c-.604-2.735-8.153-1.116-9.716-.865a45.75 45.75 0 0 0-8.87 2.551c-3.153 1.234-6.815 3.048-10.08 1.172-1.887-1.083 4.665-3.221 5.258-3.439a47.919 47.919 0 0 0 8.031-3.673c1.036-.614 3.04-2.082 2.178-3.572-.717-1.234-3.287-1.117-4.85-.927a57.915 57.915 0 0 0-13.826 3.455 137.462 137.462 0 0 0-12.69 5.789 16.388 16.388 0 0 1-5.146 1.848c-1.971.279-4.385-.14-5.163-1.228-.779-1.089.224-2.361.453-3.456a5.851 5.851 0 0 0-.386-3.907 4.126 4.126 0 0 0-1.82-1.909c-2.134-1.117-5.359-.704-7.504.178a12.306 12.306 0 0 0-3.746 2.468 15.06 15.06 0 0 0-4.413 7.564 7.024 7.024 0 0 1-2.968 4.505c-3.002 2.015-8.501 1.898-12.707.887-7.341-1.736-12.941-5.794-14.291-10.377-.655-2.183-.974-4.466-3.92-5.32-1.904-.558-5.891-.168-5.04 2.233a7.434 7.434 0 0 0 1.199 1.808c.778 1.022 1.607 2.948-.706 3.567a7.15 7.15 0 0 1-2.279.112c-7.437-.497-14.28-2.97-18.715-6.453a15.023 15.023 0 0 1-3.618-4.092c-.526-.865-.717-1.797-1.293-2.651a5.136 5.136 0 0 0-2.24-1.859c-2.856-1.223-9.565-.586-10.036 2.093-.252 1.452.655 3.026 1.12 4.405a.823.823 0 0 1 .056.558c-.134.351-.666.452-1.12.48-5.997.396-11.816-1.926-16.85-4.349-5.331-2.568-11.2-5.911-18.609-5.95a14.388 14.388 0 0 0-4.541.519 2.676 2.676 0 0 0-1.02.524 1.3 1.3 0 0 0-.246 1.441c.24.491.598.917 1.041 1.239 2.24 1.82 5.377 2.557 8.238 3.494 8.49 2.744 16.7 6.286 24.517 10.579.79.441 2.19 1.462 1.08 2.233-1.108.77-3.36.273-4.687.056-2.407-.391-4.72-1.016-7.067-1.603-3.102-.781-6.72-1.49-10.08-.843-1.775.341-3.36 1.067-4.194 2.049a1.93 1.93 0 0 0-.358 2.233c1.153 2.049 6.411 2.931 9.284 3.908a93.911 93.911 0 0 1 10.77 4.426c2.984 1.474 5.756 3.087 8.78 4.533 10.802 5.164 25.889 5.828 39.379 6.33 14.644.559 29.355.084 43.96-.725 10.64-.592 21.084-1.759 31.511-3.132 2.996-.391 5.975-.871 8.96-1.278a56.198 56.198 0 0 0 8.96-1.77 7.577 7.577 0 0 0 2.884-1.44c.801-.742 1.053-1.714-.381-1.993-3.001-.597-6.092.084-9.027.614a175.483 175.483 0 0 0-9.789 2.082 38.31 38.31 0 0 1-4.48.91 11.28 11.28 0 0 1-4.541-.29c-.482-.151-1.008-.419-1.036-.843-.028-.424.375-.692.789-.854 6.043-2.389 12.46-3.908 18.923-5.303 4.385-.949 8.848-1.53 13.266-2.272 4.027-.676 8.271-.832 11.76-3.377a4.018 4.018 0 0 0 1.546-1.859 2.23 2.23 0 0 0 .106-1.234ZM59.78 157.977c-1.64-4.65-7.487-12.883-8.72-8.021-.66 2.729 8.72 8.021 8.72 8.021ZM206.601 167.132c3.124-2.841 7.022-4.532 7.526-2.032.47 2.367-7.526 2.032-7.526 2.032ZM78.4 144.535c-2.14-1.116-3.808-2.908-2.553-3.656 1.254-.748 2.553 3.656 2.553 3.656Z" opacity=".3"/>
  </g>
  <defs>
    <clipPath id="a">
      <path fill="#fff" d="M0 0h280v208H0z"/>
    </clipPath>
  </defs>
</svg>
