<svg width="570" height="500" viewBox="0 0 570 500" fill="none" xmlns="http://www.w3.org/2000/svg">
<g clip-path="url(#clip0_2_4)">
<path d="M285.673 500C443.727 500 571.854 492.546 571.854 483.352C571.854 474.157 443.727 466.703 285.673 466.703C127.619 466.703 -0.508911 474.157 -0.508911 483.352C-0.508911 492.546 127.619 500 285.673 500Z" fill="#F5F5F5"/>
<path opacity="0.1" d="M119.328 367.122C119.505 365.797 120.185 364.59 121.229 363.75C122.272 362.91 123.599 362.501 124.936 362.607C137.571 362.415 149.394 371.313 160.36 380.858C162.796 382.961 165.438 385.138 168.168 382.932C169.013 382.235 169.63 381.303 169.94 380.255C170.412 378.542 170.412 376.733 169.94 375.019C169.533 373.605 168.857 372.281 167.947 371.122C163.18 364.872 157.379 361.871 152.67 355.415C150.033 351.716 147.848 347.717 146.161 343.502C144.685 339.796 141.733 333.81 142.914 328.795C144.228 322.795 148.73 323.309 151.46 324.133C160.095 326.707 168.154 332.84 175.475 340.472C183.283 348.591 190.353 358.371 197.393 368.092C200.05 371.784 202.854 375.578 206.249 376.917C209.644 378.255 213.939 376.093 215.371 370.769C216.803 365.445 215.12 359.327 214.766 354.032C214.292 347.714 214.599 341.362 215.681 335.119C216.161 331.818 217.278 328.642 218.972 325.765C222.78 320.206 228.419 322.162 232.109 326.368C234.925 329.887 237.103 333.869 238.544 338.134C242.685 349.919 245.168 362.218 245.924 374.681C246.485 382.402 247.666 390.447 250.854 396.433C256.005 406.11 265.614 405.345 273.068 400.271C286.042 391.447 296.049 371.504 298.721 349.208C299.591 341.943 299.813 334.09 302.47 328.001C304.787 322.736 310.735 319.177 313.643 324.854C314.814 327.692 315.142 330.806 314.588 333.825C314.067 336.815 313.332 339.764 312.388 342.649C310.912 347.65 309.436 357.018 313.422 359.945C314.016 360.304 314.682 360.53 315.373 360.606C316.064 360.683 316.763 360.607 317.422 360.386C330.469 357.68 342.602 345.443 350.573 328.369C353.46 321.943 355.667 315.235 357.155 308.352C358.115 304.146 358.513 299.631 359.576 295.454C360.257 292.167 361.636 289.063 363.62 286.35C368.698 280.291 380.417 283.144 381.081 296.131C381.48 303.646 379.473 311 378.735 318.353C378.277 322.942 381.126 322.912 383.251 322.765C393.436 321.736 402.439 311.5 410.424 300.852C419.915 288.189 430.424 271.746 443.383 271.261C446.335 271.158 451.25 271.54 453.022 276.085C453.843 278.869 453.843 281.83 453.022 284.615C450.394 295.469 442.69 301.072 436.786 306.44C420.14 321.997 405.499 339.555 393.199 358.709C391.325 361.651 389.391 366.504 391.177 369.387C391.519 369.935 392.019 370.369 392.611 370.631C393.203 370.893 393.861 370.972 394.498 370.857C400.594 370.387 406.306 365.563 411.871 361.562C417.435 357.562 423.753 354.062 429.583 357.077C431.38 358.151 432.946 359.57 434.19 361.252C435.434 362.933 436.331 364.843 436.83 366.872C437.872 370.427 438.039 374.18 437.317 377.814C435.177 387.8 425.922 392.285 420.83 397.212C413.818 403.952 407.399 411.279 401.642 419.111C396.329 426.362 391.31 434.304 385.996 441.422C366.809 466.909 340.241 470.689 316.624 473.645C290.927 476.851 265.171 475.116 239.622 471.748C221.039 469.277 202.722 464.012 184.582 457.761C178.353 455.511 172.168 453.055 166.058 450.143C159.49 447.025 149.822 445.099 147.298 432.818C146.766 430.171 147.386 428.024 149.143 427.038C154.589 423.95 162.353 428.082 167.475 430.803C174.545 434.568 181.246 439.936 188.508 442.834C189.675 443.405 190.947 443.735 192.245 443.803C193.544 443.872 194.844 443.677 196.065 443.231C197.262 442.73 198.248 441.831 198.854 440.686C199.627 439.195 199.816 437.471 199.386 435.848C199.086 434.971 198.58 434.18 197.91 433.539C184.839 420.19 169.222 409.58 151.977 402.33C146.442 399.963 140.789 398.021 135.46 394.668C131.153 392.014 127.436 388.511 124.538 384.373C122.058 380.417 118.073 373.431 119.328 367.122Z" fill="#407BFF"/>
<path opacity="0.1" d="M401.642 259.01C400.656 260.028 399.363 260.698 397.961 260.92C396.558 261.141 395.121 260.902 393.867 260.237C392.613 259.572 391.61 258.519 391.011 257.236C390.411 255.954 390.247 254.511 390.543 253.127C395.635 228.493 406.705 210.579 419.871 219.874C429.701 226.801 414.291 245.906 401.642 259.01Z" fill="#407BFF"/>
<path opacity="0.3" d="M365.923 270.511C369.95 268.296 373.363 265.123 375.859 261.273C378.355 257.424 379.855 253.018 380.225 248.45L390.203 127.338C390.721 121.112 389.926 114.847 387.869 108.946C385.813 103.044 382.54 97.6367 378.262 93.0702L347.517 60.2587C345.825 58.4444 344.531 56.2995 343.715 53.9601C342.899 51.6208 342.581 49.138 342.779 46.6694L344.255 28.9327L264.684 22.4174L263.208 40.1542C263.004 42.6219 262.286 45.0201 261.099 47.1955C259.912 49.3708 258.283 51.2754 256.315 52.7875L220.596 80.1868C215.63 83.9999 211.519 88.8044 208.525 94.2925C205.531 99.7806 203.72 105.831 203.209 112.057L193.216 233.17C192.838 237.732 193.599 242.316 195.43 246.514C197.261 250.712 200.106 254.393 203.71 257.23C199.684 259.444 196.271 262.617 193.778 266.467C191.284 270.317 189.788 274.723 189.423 279.291L176.685 433.715C176.085 441.057 178.434 448.336 183.216 453.953C187.998 459.57 194.823 463.066 202.19 463.674L333.554 474.424C337.202 474.724 340.874 474.306 344.359 473.191C347.845 472.077 351.076 470.29 353.868 467.931C356.66 465.572 358.958 462.689 360.632 459.445C362.305 456.201 363.321 452.66 363.62 449.025L376.358 294.601C376.748 290.04 375.999 285.453 374.178 281.25C372.357 277.046 369.521 273.357 365.923 270.511Z" fill="#407BFF"/>
<path opacity="0.3" d="M264.707 22.4444L263.578 36.12L343.132 42.6371L344.26 28.9615L264.707 22.4444Z" fill="#407BFF"/>
<path opacity="0.3" d="M377.524 96.2322L346.779 63.3913C346.779 63.3913 326.956 64.2443 342.351 88.4669C355.473 108.954 378.336 105.762 377.524 96.2322Z" fill="white"/>
<path opacity="0.2" d="M176.7 433.656C176.1 440.998 178.449 448.277 183.231 453.894C188.013 459.512 194.838 463.008 202.205 463.615L333.569 474.366C337.217 474.666 340.889 474.247 344.374 473.133C347.86 472.018 351.091 470.231 353.883 467.872C356.675 465.514 358.973 462.63 360.646 459.386C362.32 456.142 363.335 452.602 363.635 448.966L176.7 433.656Z" fill="#407BFF"/>
<path opacity="0.3" d="M371.783 99.0707C375.216 102.739 377.843 107.082 379.495 111.82C381.147 116.558 381.788 121.588 381.377 126.588L371.399 247.715C371.139 250.829 370.111 253.83 368.407 256.452C366.702 259.075 364.373 261.237 361.628 262.746L350.012 269.158L360.417 277.379C362.879 279.313 364.823 281.823 366.075 284.687C367.326 287.551 367.847 290.679 367.591 293.792L354.853 448.216C354.443 453.221 352.057 457.859 348.219 461.112C344.381 464.366 339.404 465.969 334.381 465.571L203.017 454.82C200.522 454.623 198.091 453.938 195.862 452.805C193.633 451.672 191.649 450.112 190.025 448.215C188.401 446.318 187.168 444.121 186.396 441.749C185.624 439.378 185.328 436.877 185.526 434.392L198.264 279.968C198.518 276.852 199.542 273.848 201.245 271.223C202.947 268.598 205.275 266.433 208.02 264.922L219.637 258.51L209.305 250.289C206.843 248.355 204.899 245.844 203.647 242.981C202.396 240.117 201.875 236.989 202.131 233.876L212.124 112.763C212.538 107.763 213.995 102.905 216.402 98.498C218.809 94.0915 222.113 90.2341 226.101 87.1727C237.909 79.5691 268.905 98.4971 305.2 101.468C341.495 104.439 364.196 95.2615 371.783 99.0707Z" fill="#407BFF"/>
<path opacity="0.2" d="M305.126 101.483C268.846 98.5412 237.821 79.5691 226.013 87.1726C246.677 98.4971 270.293 105.512 304.551 108.321C338.809 111.13 371.783 99.0707 371.783 99.0707C364.196 95.2615 341.406 104.468 305.126 101.483Z" fill="#407BFF"/>
<path opacity="0.2" d="M193.231 233.17C192.853 237.732 193.614 242.316 195.445 246.514C197.276 250.712 200.12 254.393 203.725 257.23L365.923 270.467C369.949 268.252 373.363 265.079 375.859 261.229C378.355 257.38 379.855 252.974 380.225 248.406L193.231 233.17Z" fill="#407BFF"/>
<path d="M345.923 7.27113L266.592 0.752173C263.269 0.479128 260.355 2.94188 260.083 6.25287L258.501 25.4841C258.228 28.7951 260.701 31.7005 264.024 31.9735L343.355 38.4925C346.678 38.7655 349.593 36.3028 349.865 32.9918L351.447 13.7606C351.719 10.4496 349.246 7.54417 345.923 7.27113Z" fill="#407BFF"/>
<path opacity="0.2" d="M268.049 29.0062C267.952 28.9988 267.858 28.9723 267.771 28.9283C267.684 28.8843 267.607 28.8237 267.544 28.7499C267.481 28.676 267.433 28.5905 267.403 28.4982C267.373 28.4059 267.362 28.3087 267.37 28.212L269.23 4.94545C269.246 4.75042 269.339 4.56957 269.488 4.4427C269.637 4.31583 269.831 4.25332 270.027 4.26892C270.223 4.28452 270.404 4.37696 270.532 4.5259C270.659 4.67483 270.722 4.86808 270.706 5.06311L268.787 28.315C268.776 28.5023 268.693 28.6782 268.556 28.8067C268.419 28.9352 268.238 29.0065 268.049 29.0062Z" fill="white"/>
<path opacity="0.2" d="M282.44 30.1828C282.343 30.1754 282.249 30.1489 282.162 30.1049C282.075 30.0609 281.998 30.0002 281.935 29.9264C281.872 29.8526 281.824 29.7671 281.794 29.6748C281.764 29.5825 281.753 29.4852 281.761 29.3886L283.68 6.13672C283.699 5.94294 283.793 5.76401 283.941 5.63776C284.09 5.51152 284.282 5.44784 284.477 5.46019C284.574 5.46753 284.668 5.49407 284.754 5.53825C284.84 5.58243 284.916 5.64335 284.978 5.7174C285.04 5.79145 285.086 5.87713 285.114 5.96937C285.142 6.0616 285.152 6.15851 285.141 6.25437L283.178 29.5063C283.16 29.6897 283.075 29.86 282.939 29.9848C282.803 30.1096 282.625 30.18 282.44 30.1828Z" fill="white"/>
<path opacity="0.2" d="M296.816 31.4182C296.719 31.4108 296.625 31.3843 296.538 31.3403C296.451 31.2963 296.374 31.2357 296.311 31.1618C296.248 31.088 296.2 31.0025 296.17 30.9102C296.141 30.8179 296.129 30.7206 296.138 30.624L298.056 7.37213C298.079 7.17978 298.173 7.00298 298.321 6.87742C298.469 6.75186 298.659 6.68688 298.853 6.6956C298.95 6.70302 299.045 6.72949 299.132 6.77349C299.218 6.81748 299.296 6.87813 299.359 6.95195C299.422 7.02576 299.47 7.11128 299.499 7.20359C299.529 7.29589 299.54 7.39315 299.532 7.48978L297.614 30.7417C297.606 30.8383 297.58 30.9326 297.535 31.019C297.491 31.1054 297.43 31.1823 297.356 31.2451C297.282 31.308 297.196 31.3557 297.104 31.3854C297.011 31.4151 296.913 31.4262 296.816 31.4182Z" fill="white"/>
<path opacity="0.2" d="M311.207 32.5359C311.11 32.5285 311.016 32.502 310.929 32.458C310.842 32.414 310.765 32.3534 310.702 32.2795C310.639 32.2057 310.591 32.1202 310.561 32.0279C310.532 31.9356 310.52 31.8383 310.529 31.7417L312.447 8.48983C312.466 8.29605 312.56 8.11713 312.708 7.99088C312.857 7.86464 313.049 7.80096 313.244 7.81331C313.341 7.82065 313.435 7.84719 313.521 7.89137C313.607 7.93555 313.683 7.99647 313.745 8.07052C313.807 8.14457 313.853 8.23024 313.881 8.32248C313.909 8.41471 313.919 8.51163 313.909 8.60749L311.99 31.8594C311.984 31.9554 311.959 32.0493 311.917 32.1357C311.874 32.222 311.815 32.2989 311.742 32.362C311.669 32.425 311.584 32.4729 311.492 32.5028C311.401 32.5326 311.304 32.5439 311.207 32.5359Z" fill="white"/>
<path opacity="0.2" d="M325.525 33.7125C325.428 33.7051 325.333 33.6786 325.246 33.6346C325.16 33.5906 325.083 33.5299 325.019 33.4561C324.956 33.3823 324.909 33.2968 324.879 33.2045C324.849 33.1122 324.838 33.0149 324.846 32.9183L326.765 9.66641C326.79 9.47544 326.886 9.30063 327.033 9.1757C327.18 9.05077 327.368 8.98458 327.562 8.98989C327.659 8.99731 327.753 9.02378 327.84 9.06778C327.927 9.11177 328.004 9.17242 328.067 9.24624C328.13 9.32005 328.178 9.40556 328.208 9.49787C328.237 9.59017 328.249 9.68744 328.241 9.78407L326.322 33.0359C326.316 33.1333 326.291 33.2286 326.248 33.316C326.204 33.4034 326.143 33.481 326.069 33.5443C325.994 33.6075 325.908 33.6551 325.814 33.684C325.721 33.7129 325.622 33.7226 325.525 33.7125Z" fill="white"/>
<path opacity="0.2" d="M339.975 34.889C339.878 34.8816 339.783 34.8551 339.696 34.8111C339.61 34.7672 339.533 34.7065 339.469 34.6327C339.406 34.5589 339.358 34.4734 339.329 34.3811C339.299 34.2888 339.288 34.1915 339.296 34.0949L341.156 10.8283C341.174 10.6345 341.268 10.4556 341.417 10.3293C341.565 10.2031 341.758 10.1394 341.953 10.1518C342.146 10.1704 342.324 10.2642 342.448 10.4129C342.573 10.5616 342.633 10.7531 342.617 10.9459L340.713 34.2125C340.695 34.3959 340.609 34.5663 340.473 34.6911C340.337 34.8158 340.16 34.8863 339.975 34.889Z" fill="white"/>
<path opacity="0.2" d="M217.777 192.711C215.533 180.342 197.452 181.224 196.419 193.74L193.172 233.17C192.794 237.732 193.554 242.316 195.385 246.514C197.216 250.712 200.061 254.393 203.666 257.23C199.64 259.444 196.227 262.617 193.733 266.467C191.24 270.317 189.744 274.723 189.378 279.291L176.641 433.715C176.04 441.057 178.39 448.336 183.172 453.953C187.954 459.57 194.778 463.066 202.146 463.674L236.094 466.453C239.834 466.758 243.594 466.203 247.085 464.829C250.575 463.456 253.702 461.302 256.224 458.533C258.746 455.765 260.596 452.455 261.63 448.861C262.664 445.267 262.856 441.484 262.19 437.804L217.777 192.711Z" fill="#407BFF"/>
<path opacity="0.3" d="M348.403 394.918C348.168 397.753 347.096 400.455 345.321 402.682C343.545 404.91 341.147 406.563 338.429 407.433C335.711 408.302 332.795 408.349 330.051 407.568C327.306 406.786 324.855 405.212 323.008 403.043C321.162 400.874 320.002 398.208 319.675 395.382C319.349 392.556 319.871 389.697 321.175 387.167C322.479 384.637 324.507 382.548 327.002 381.166C329.497 379.784 332.347 379.17 335.192 379.402C339.008 379.717 342.542 381.528 345.019 384.437C347.496 387.346 348.713 391.116 348.403 394.918Z" fill="#407BFF"/>
<path opacity="0.3" d="M302.514 339.222C302.349 341.229 301.591 343.142 300.336 344.719C299.08 346.296 297.383 347.467 295.46 348.083C293.537 348.699 291.473 348.733 289.53 348.18C287.588 347.628 285.853 346.514 284.546 344.979C283.239 343.444 282.418 341.557 282.187 339.557C281.956 337.557 282.325 335.534 283.249 333.743C284.172 331.953 285.607 330.475 287.374 329.497C289.14 328.52 291.157 328.086 293.171 328.251C295.868 328.476 298.366 329.757 300.117 331.813C301.868 333.87 302.73 336.534 302.514 339.222Z" fill="#407BFF"/>
<path opacity="0.3" d="M259.813 215.257C257.796 215.35 255.797 214.846 254.067 213.808C252.338 212.769 250.956 211.244 250.096 209.423C249.237 207.603 248.938 205.569 249.238 203.58C249.537 201.59 250.422 199.734 251.78 198.245C253.138 196.756 254.909 195.702 256.868 195.215C258.827 194.728 260.887 194.831 262.788 195.511C264.688 196.19 266.344 197.416 267.546 199.032C268.748 200.649 269.442 202.584 269.54 204.594C269.606 205.931 269.406 207.267 268.952 208.527C268.499 209.787 267.8 210.945 266.896 211.936C265.993 212.926 264.902 213.729 263.687 214.299C262.471 214.869 261.155 215.194 259.813 215.257Z" fill="#407BFF"/>
<path opacity="0.3" d="M287.665 154.413C286.236 154.485 284.817 154.131 283.588 153.399C282.36 152.666 281.378 151.586 280.766 150.297C280.154 149.007 279.94 147.566 280.151 146.155C280.361 144.744 280.988 143.427 281.95 142.371C282.913 141.315 284.168 140.567 285.557 140.223C286.946 139.878 288.407 139.952 289.754 140.435C291.101 140.919 292.274 141.789 293.124 142.937C293.974 144.085 294.463 145.458 294.529 146.883C294.617 148.788 293.944 150.65 292.658 152.061C291.372 153.472 289.576 154.318 287.665 154.413Z" fill="#407BFF"/>
<path opacity="0.3" d="M332.477 295.233C332.407 296.061 332.092 296.851 331.573 297.501C331.053 298.151 330.352 298.634 329.557 298.887C328.762 299.14 327.91 299.153 327.108 298.925C326.306 298.696 325.59 298.235 325.05 297.601C324.511 296.967 324.172 296.188 324.077 295.362C323.981 294.537 324.133 293.701 324.514 292.961C324.895 292.222 325.487 291.611 326.216 291.207C326.945 290.802 327.778 290.622 328.61 290.689C329.726 290.783 330.76 291.314 331.485 292.165C332.21 293.017 332.567 294.12 332.477 295.233Z" fill="#407BFF"/>
<path opacity="0.7" d="M256.02 410.302H255.311C254.181 410.224 253.077 409.925 252.064 409.42C251.051 408.915 250.148 408.215 249.407 407.36C248.679 406.509 248.128 405.522 247.786 404.456C247.444 403.391 247.318 402.268 247.415 401.154C247.552 399.506 248.168 397.934 249.188 396.629C250.207 395.324 251.586 394.343 253.155 393.806C254.724 393.269 256.417 393.199 258.026 393.604C259.635 394.009 261.09 394.872 262.215 396.088C263.34 397.304 264.085 398.82 264.36 400.45C264.634 402.081 264.427 403.756 263.762 405.271C263.097 406.786 262.004 408.075 260.616 408.982C259.228 409.888 257.606 410.372 255.946 410.375L256.02 410.302ZM256.02 394.359C254.341 394.367 252.716 394.946 251.411 395.999C250.107 397.052 249.202 398.516 248.845 400.151C248.488 401.785 248.702 403.492 249.45 404.989C250.198 406.487 251.436 407.685 252.959 408.387C254.483 409.089 256.202 409.253 257.831 408.85C259.46 408.448 260.904 407.505 261.922 406.175C262.941 404.846 263.474 403.21 263.434 401.538C263.394 399.865 262.784 398.257 261.702 396.977C261.073 396.233 260.301 395.621 259.432 395.177C258.563 394.733 257.614 394.465 256.64 394.389L256.02 394.359Z" fill="white"/>
<path opacity="0.7" d="M347.311 238.2H346.794C345.155 238.065 343.636 237.287 342.571 236.039C341.506 234.79 340.981 233.171 341.111 231.537C341.247 229.901 342.029 228.385 343.285 227.324C344.542 226.262 346.17 225.741 347.812 225.875C349.452 226.01 350.97 226.787 352.036 228.036C353.101 229.285 353.626 230.904 353.495 232.537C353.355 234.173 352.576 235.689 351.325 236.758C350.201 237.698 348.778 238.209 347.311 238.2ZM342.218 231.596C342.145 232.596 342.37 233.596 342.864 234.469C343.359 235.342 344.102 236.05 344.999 236.504C345.896 236.958 346.908 237.138 347.908 237.021C348.907 236.904 349.85 236.495 350.617 235.846C351.129 235.414 351.55 234.885 351.857 234.291C352.164 233.696 352.35 233.046 352.405 232.38C352.46 231.713 352.382 231.042 352.177 230.406C351.971 229.769 351.642 229.179 351.207 228.669C350.756 228.174 350.211 227.773 349.602 227.49C348.994 227.207 348.335 227.048 347.665 227.022C346.997 226.966 346.324 227.041 345.686 227.245C345.047 227.448 344.455 227.775 343.943 228.207C343.432 228.638 343.011 229.167 342.705 229.761C342.399 230.355 342.213 231.004 342.159 231.67L342.218 231.596Z" fill="white"/>
<path opacity="0.7" d="M251.946 107.806H251.725C250.963 107.731 250.259 107.364 249.763 106.783C249.268 106.201 249.018 105.45 249.068 104.689C249.105 104.116 249.31 103.568 249.656 103.11C250.002 102.652 250.475 102.305 251.017 102.111C251.559 101.918 252.145 101.886 252.705 102.02C253.264 102.154 253.772 102.449 254.166 102.866C254.56 103.284 254.822 103.808 254.922 104.373C255.021 104.937 254.952 105.519 254.724 106.045C254.496 106.571 254.119 107.02 253.638 107.335C253.158 107.651 252.595 107.82 252.02 107.821L251.946 107.806ZM250.16 104.777C250.132 105.127 250.209 105.478 250.381 105.785C250.553 106.091 250.812 106.341 251.126 106.501C251.44 106.661 251.795 106.725 252.145 106.685C252.495 106.645 252.826 106.502 253.095 106.275C253.364 106.048 253.56 105.746 253.657 105.408C253.755 105.071 253.749 104.712 253.642 104.377C253.535 104.042 253.331 103.746 253.055 103.527C252.78 103.308 252.445 103.175 252.094 103.144C251.859 103.122 251.622 103.147 251.396 103.218C251.171 103.288 250.962 103.403 250.782 103.555C250.602 103.707 250.454 103.893 250.347 104.103C250.24 104.313 250.177 104.542 250.16 104.777Z" fill="white"/>
<path opacity="0.7" d="M317.215 183.975H316.595C315.623 183.899 314.676 183.632 313.809 183.189C312.941 182.746 312.17 182.137 311.54 181.396C310.91 180.655 310.434 179.797 310.139 178.871C309.844 177.945 309.735 176.971 309.82 176.003C309.946 174.583 310.483 173.23 311.367 172.109C312.251 170.988 313.442 170.147 314.797 169.688C316.152 169.229 317.611 169.173 318.997 169.526C320.383 169.878 321.637 170.625 322.605 171.674C323.573 172.724 324.214 174.031 324.45 175.437C324.686 176.843 324.507 178.288 323.934 179.594C323.362 180.9 322.42 182.013 321.225 182.796C320.029 183.579 318.631 183.998 317.2 184.004L317.215 183.975ZM317.215 170.297C315.729 170.29 314.29 170.812 313.156 171.768C311.881 172.842 311.085 174.375 310.942 176.033C310.859 177.061 311.031 178.094 311.443 179.04C311.856 179.986 312.496 180.817 313.307 181.458C314.119 182.099 315.076 182.531 316.094 182.716C317.113 182.901 318.161 182.833 319.147 182.518C320.133 182.203 321.026 181.651 321.747 180.911C322.468 180.17 322.995 179.264 323.281 178.273C323.567 177.281 323.604 176.235 323.387 175.226C323.171 174.217 322.709 173.277 322.041 172.488C321.507 171.857 320.852 171.339 320.115 170.962C319.377 170.586 318.572 170.36 317.746 170.297H317.215Z" fill="white"/>
<path opacity="0.3" d="M377.76 248.274L387.295 132.779C387.356 132.041 387.27 131.299 387.042 130.594C386.815 129.889 386.45 129.236 385.969 128.672C385.488 128.108 384.899 127.644 384.238 127.306C383.577 126.969 382.855 126.765 382.115 126.705C381.375 126.643 380.63 126.727 379.923 126.952C379.216 127.177 378.56 127.539 377.994 128.017C377.427 128.496 376.961 129.081 376.622 129.739C376.283 130.397 376.078 131.115 376.019 131.853L366.484 247.347C366.174 251.187 364.912 254.889 362.813 258.123C360.713 261.357 357.841 264.022 354.454 265.878L348.654 269.099L353.864 273.202C356.901 275.586 359.298 278.681 360.843 282.212C362.388 285.743 363.033 289.6 362.72 293.439L349.982 447.863C349.215 457.129 343.37 461.644 335.148 465.247C334.627 465.48 334.197 465.879 333.928 466.381C333.658 466.883 333.563 467.46 333.657 468.021C333.752 468.583 334.031 469.098 334.45 469.485C334.869 469.871 335.406 470.109 335.975 470.159C342.171 470.664 348.315 468.696 353.056 464.689C357.797 460.682 360.747 454.964 361.259 448.79L373.997 294.366C374.312 290.526 373.669 286.669 372.124 283.137C370.578 279.606 368.179 276.511 365.141 274.129L359.93 270.011L365.731 266.805C369.115 264.945 371.985 262.28 374.084 259.047C376.183 255.813 377.446 252.112 377.76 248.274Z" fill="white"/>
<path opacity="0.3" d="M530.969 427.759C529.375 420.552 509.479 424.818 505.361 425.479C497.359 426.926 489.526 429.178 481.981 432.2C473.671 435.451 464.018 440.23 455.413 435.289C450.439 432.436 467.708 426.803 469.272 426.229C476.612 423.66 483.697 420.421 490.438 416.552C493.169 414.934 498.453 411.066 496.18 407.14C494.291 403.889 487.516 404.198 483.398 404.698C470.919 406.221 458.679 409.279 446.955 413.802C435.553 418.315 424.39 423.406 413.509 429.053C409.294 431.423 404.708 433.068 399.945 433.921C394.749 434.657 388.388 433.554 386.336 430.686C384.284 427.818 386.926 424.465 387.531 421.582C388.388 418.136 388.028 414.501 386.513 411.287C385.509 409.133 383.824 407.366 381.716 406.257C376.092 403.316 367.591 404.404 361.938 406.728C358.274 408.274 354.927 410.477 352.063 413.228C346.294 418.579 342.246 425.514 340.432 433.156C339.975 435.55 339.049 437.83 337.707 439.867C336.365 441.903 334.633 443.656 332.61 445.025C324.698 450.334 310.204 450.025 299.119 447.363C279.769 442.79 265.009 432.098 261.452 420.023C259.725 414.273 258.883 408.257 251.12 406.007C246.101 404.536 235.592 405.566 237.836 411.89C238.65 413.623 239.714 415.228 240.994 416.655C243.046 419.346 245.23 424.42 239.134 426.053C237.161 426.47 235.132 426.57 233.127 426.347C213.526 425.038 195.489 418.523 183.799 409.346C179.988 406.362 176.756 402.708 174.264 398.565C172.877 396.286 172.375 393.83 170.855 391.58C169.402 389.414 167.352 387.713 164.951 386.682C157.423 383.461 139.741 385.138 138.501 392.197C137.837 396.021 140.228 400.168 141.453 403.801C141.673 404.259 141.725 404.779 141.6 405.272C141.246 406.198 139.844 406.463 138.648 406.537C122.84 407.581 107.505 401.463 94.2355 395.08C80.184 388.315 64.7155 379.505 45.1881 379.402C41.1502 379.218 37.109 379.68 33.2177 380.77C32.2325 381.032 31.316 381.503 30.5314 382.152C30.0542 382.647 29.7373 383.274 29.6215 383.95C29.5057 384.627 29.5964 385.322 29.8819 385.947C30.5158 387.242 31.4583 388.363 32.6273 389.212C38.5313 394.006 46.7969 395.948 54.3393 398.418C76.7172 405.646 98.3544 414.978 118.959 426.288C121.04 427.45 124.73 430.141 121.807 432.171C118.885 434.201 112.951 432.892 109.453 432.318C103.106 431.289 97.0104 429.641 90.826 428.097C82.6489 426.038 73.114 424.17 64.258 425.876C59.5791 426.774 55.402 428.685 53.2027 431.274C52.4448 432.031 51.9457 433.007 51.7761 434.063C51.6065 435.119 51.7752 436.202 52.2581 437.157C55.2987 442.554 69.1583 444.878 76.7302 447.452C86.425 450.749 95.9045 454.644 105.114 459.114C112.981 462.997 120.287 467.247 128.257 471.057C156.729 484.661 196.493 486.411 232.05 487.734C270.647 489.205 309.422 487.955 347.916 485.822C375.96 484.263 403.487 481.19 430.97 477.572C438.867 476.542 446.719 475.277 454.586 474.204C462.572 473.292 470.47 471.732 478.202 469.542C480.98 468.836 483.573 467.541 485.804 465.747C487.914 463.791 488.578 461.232 484.8 460.497C476.889 458.923 468.741 460.717 461.007 462.115C452.328 463.703 443.728 465.532 435.206 467.6C431.322 468.633 427.379 469.433 423.398 469.998C419.398 470.557 415.324 470.297 411.428 469.233C410.159 468.836 408.771 468.13 408.697 467.012C408.624 465.894 409.686 465.188 410.779 464.762C426.705 458.467 443.619 454.467 460.652 450.79C472.21 448.29 483.973 446.76 495.619 444.804C506.231 443.025 517.419 442.613 526.615 435.907C528.445 434.729 529.867 433.02 530.689 431.009C531.088 429.974 531.185 428.847 530.969 427.759Z" fill="#407BFF"/>
<path opacity="0.3" d="M74.2357 368.21C69.911 355.959 54.5016 334.266 51.2544 347.076C49.5127 354.268 74.2357 368.21 74.2357 368.21Z" fill="#407BFF"/>
<path opacity="0.3" d="M461.213 392.329C469.449 384.844 479.722 380.388 481.051 386.976C482.291 393.211 461.213 392.329 461.213 392.329Z" fill="#407BFF"/>
<path opacity="0.3" d="M123.313 332.795C117.674 329.853 113.276 325.133 116.582 323.162C119.888 321.192 123.313 332.795 123.313 332.795Z" fill="#407BFF"/>
</g>
<defs>
<clipPath id="clip0_2_4">
<rect width="570" height="500" fill="white"/>
</clipPath>
</defs>
</svg>
