<svg xmlns="http://www.w3.org/2000/svg" width="738" height="548" fill="none">
  <g clip-path="url(#a)">
    <path fill="#F5F5F5" d="M369 548c158.054 0 286.182-7.454 286.182-16.648 0-9.195-128.128-16.649-286.182-16.649-158.054 0-286.182 7.454-286.182 16.649C82.818 540.546 210.946 548 369 548Z"/>
    <path fill="#407BFF" d="M202.655 415.122a5.218 5.218 0 0 1 1.901-3.372 5.252 5.252 0 0 1 3.708-1.143c12.634-.192 24.457 8.706 35.424 18.251 2.435 2.103 5.077 4.28 7.808 2.074a5.487 5.487 0 0 0 1.771-2.677 9.858 9.858 0 0 0 0-5.236 11.412 11.412 0 0 0-1.993-3.897c-4.767-6.25-10.568-9.251-15.276-15.707a56.932 56.932 0 0 1-6.509-11.913c-1.476-3.706-4.428-9.692-3.248-14.707 1.314-6 5.816-5.486 8.546-4.662 8.635 2.574 16.694 8.707 24.015 16.339 7.808 8.119 14.878 17.899 21.919 27.62 2.656 3.692 5.461 7.486 8.856 8.825 3.394 1.338 7.69-.824 9.121-6.148 1.432-5.324-.251-11.442-.605-16.737a77.06 77.06 0 0 1 .915-18.913 25.731 25.731 0 0 1 3.292-9.354c3.808-5.559 9.446-3.603 13.136.603a38.574 38.574 0 0 1 6.435 11.766 134.836 134.836 0 0 1 7.38 36.547c.561 7.721 1.742 15.766 4.93 21.752 5.152 9.677 14.76 8.912 22.214 3.838 12.974-8.824 22.981-28.767 25.653-51.063.871-7.265 1.092-15.118 3.749-21.207 2.317-5.265 8.266-8.824 11.173-3.147a15.963 15.963 0 0 1 .945 8.971 63.472 63.472 0 0 1-2.199 8.824c-1.476 5.001-2.952 14.369 1.033 17.296a4.784 4.784 0 0 0 4 .441c13.048-2.706 25.18-14.943 33.151-32.017a100.84 100.84 0 0 0 6.583-20.017c.959-4.206 1.358-8.721 2.421-12.898a23.485 23.485 0 0 1 4.044-9.104c5.077-6.059 16.797-3.206 17.461 9.781.398 7.515-1.609 14.869-2.347 22.222-.458 4.589 2.391 4.559 4.517 4.412 10.184-1.029 19.188-11.265 27.173-21.913 9.49-12.663 19.999-29.106 32.959-29.591 2.952-.103 7.867.279 9.638 4.824a15.079 15.079 0 0 1 0 8.53c-2.627 10.854-10.332 16.457-16.236 21.825a274.772 274.772 0 0 0-43.586 52.269c-1.875 2.942-3.808 7.795-2.022 10.678.341.548.841.982 1.433 1.244.592.262 1.25.341 1.888.226 6.096-.47 11.808-5.294 17.372-9.295 5.565-4 11.882-7.5 17.712-4.485a15.82 15.82 0 0 1 7.247 9.795 22.977 22.977 0 0 1 .487 10.942c-2.14 9.986-11.394 14.471-16.486 19.398a170.1 170.1 0 0 0-19.188 21.899c-5.314 7.251-10.333 15.193-15.646 22.311-19.188 25.487-45.756 29.267-69.372 32.223-25.697 3.206-51.453 1.471-77.003-1.897-18.583-2.471-36.9-7.736-55.04-13.987-6.229-2.25-12.413-4.706-18.524-7.618-6.568-3.118-16.236-5.044-18.76-17.325-.531-2.647.089-4.794 1.845-5.78 5.447-3.088 13.21 1.044 18.332 3.765 7.07 3.765 13.771 9.133 21.033 12.031a9.656 9.656 0 0 0 7.557.397 5.598 5.598 0 0 0 2.79-2.545 6.757 6.757 0 0 0 .531-4.838 5.765 5.765 0 0 0-1.476-2.309 140.476 140.476 0 0 0-45.933-31.209c-5.535-2.367-11.188-4.309-16.516-7.662a37.095 37.095 0 0 1-10.923-10.295c-2.479-3.956-6.465-10.942-5.21-17.251ZM484.97 307.01a6.554 6.554 0 0 1-10.632-1.774 6.49 6.49 0 0 1-.468-4.109c5.092-24.634 16.162-42.548 29.328-33.253 9.83 6.927-5.579 26.032-18.228 39.136Z" opacity=".1"/>
    <path fill="#407BFF" d="M449.25 318.511a27.804 27.804 0 0 0 9.936-9.238 27.687 27.687 0 0 0 4.367-12.823l9.978-121.112a44.663 44.663 0 0 0-2.334-18.392 44.78 44.78 0 0 0-9.607-15.876l-30.745-32.811a17.845 17.845 0 0 1-4.738-13.59l1.476-17.736-79.571-6.516-1.476 17.737a17.753 17.753 0 0 1-2.109 7.041 17.816 17.816 0 0 1-4.784 5.593l-35.719 27.399a44.897 44.897 0 0 0-12.072 14.106 44.746 44.746 0 0 0-5.316 17.764l-9.992 121.113a27.66 27.66 0 0 0 2.213 13.344 27.762 27.762 0 0 0 8.281 10.716 27.792 27.792 0 0 0-9.933 9.237 27.66 27.66 0 0 0-4.355 12.824l-12.737 154.424a27.723 27.723 0 0 0 6.531 20.238 27.933 27.933 0 0 0 18.974 9.721l131.364 10.75a27.926 27.926 0 0 0 20.314-6.493 27.768 27.768 0 0 0 6.763-8.486 27.687 27.687 0 0 0 2.989-10.42l12.738-154.424a27.667 27.667 0 0 0-2.18-13.351 27.757 27.757 0 0 0-8.256-10.739Z" opacity=".3"/>
    <path fill="#407BFF" d="m348.034 70.445-1.128 13.675 79.553 6.517 1.129-13.675-79.554-6.517Z" opacity=".3"/>
    <path fill="#fff" d="m460.852 144.232-30.746-32.841s-19.822.853-4.428 25.076c13.122 20.487 35.985 17.295 35.174 7.765Z" opacity=".3"/>
    <path fill="#407BFF" d="M260.027 481.656a27.732 27.732 0 0 0 6.531 20.238 27.929 27.929 0 0 0 18.974 9.721l131.364 10.751c3.649.3 7.32-.119 10.806-1.233a27.89 27.89 0 0 0 9.508-5.261 27.77 27.77 0 0 0 6.764-8.486 27.7 27.7 0 0 0 2.989-10.419l-186.936-15.311Z" opacity=".2"/>
    <path fill="#407BFF" d="M455.11 147.071a36.008 36.008 0 0 1 7.712 12.749 35.916 35.916 0 0 1 1.882 14.768l-9.978 121.127a18.899 18.899 0 0 1-2.992 8.737 18.993 18.993 0 0 1-6.779 6.294l-11.616 6.412 10.406 8.221a18.941 18.941 0 0 1 5.657 7.308 18.868 18.868 0 0 1 1.516 9.105L438.18 496.216a18.932 18.932 0 0 1-6.634 12.896 19.07 19.07 0 0 1-13.838 4.459L286.344 502.82a19.116 19.116 0 0 1-7.155-2.015 19.039 19.039 0 0 1-5.836-4.59 18.973 18.973 0 0 1-3.63-6.466 18.914 18.914 0 0 1-.869-7.357l12.737-154.424a18.908 18.908 0 0 1 2.981-8.745 18.98 18.98 0 0 1 6.776-6.301l11.616-6.412-10.332-8.221a18.94 18.94 0 0 1-5.657-7.308 18.856 18.856 0 0 1-1.516-9.105l9.992-121.113c.414-5 1.872-9.858 4.279-14.265a36.08 36.08 0 0 1 9.699-11.325c11.808-7.604 42.804 11.324 79.099 14.295 36.294 2.971 58.995-6.206 66.582-2.397Z" opacity=".3"/>
    <path fill="#407BFF" d="M388.454 149.483c-36.28-2.942-67.306-21.914-79.114-14.31 20.664 11.324 44.28 18.339 78.538 21.148 34.258 2.81 67.232-9.25 67.232-9.25-7.587-3.809-30.376 5.397-66.656 2.412ZM276.558 281.17a27.661 27.661 0 0 0 2.214 13.344 27.772 27.772 0 0 0 8.281 10.717l162.197 13.236a27.812 27.812 0 0 0 9.936-9.238 27.687 27.687 0 0 0 4.367-12.823L276.558 281.17Z" opacity=".2"/>
    <path fill="#407BFF" d="m429.251 55.271-79.331-6.519c-3.323-.273-6.237 2.19-6.51 5.5l-1.582 19.232c-.272 3.311 2.201 6.217 5.524 6.49l79.331 6.519c3.323.273 6.237-2.19 6.51-5.501l1.581-19.231c.273-3.311-2.2-6.217-5.523-6.49Z"/>
    <path fill="#fff" d="M351.377 77.006a.746.746 0 0 1-.505-.256.724.724 0 0 1-.174-.538l1.86-23.267a.741.741 0 0 1 1.476.118l-1.919 23.252a.734.734 0 0 1-.738.691ZM365.768 78.183a.734.734 0 0 1-.646-.508.73.73 0 0 1-.033-.286l1.919-23.252a.75.75 0 0 1 .797-.677.724.724 0 0 1 .664.794l-1.963 23.252a.752.752 0 0 1-.738.677ZM380.144 79.418a.734.734 0 0 1-.646-.508.73.73 0 0 1-.033-.286l1.919-23.252a.763.763 0 0 1 .797-.676.74.74 0 0 1 .679.794l-1.919 23.252a.746.746 0 0 1-.257.503.737.737 0 0 1-.54.173ZM394.535 80.536a.734.734 0 0 1-.646-.508.73.73 0 0 1-.033-.286l1.919-23.252a.749.749 0 0 1 1.073-.599.71.71 0 0 1 .361.432c.028.092.037.189.027.285l-1.919 23.252a.712.712 0 0 1-.497.643.73.73 0 0 1-.285.033ZM408.852 81.713a.74.74 0 0 1-.679-.795l1.919-23.252a.782.782 0 0 1 .797-.676.744.744 0 0 1 .506.256.738.738 0 0 1 .173.538l-1.919 23.252a.707.707 0 0 1-.253.508.72.72 0 0 1-.544.169ZM423.302 82.89a.736.736 0 0 1-.679-.795l1.86-23.267a.749.749 0 0 1 .797-.676.732.732 0 0 1 .664.794l-1.904 23.267a.749.749 0 0 1-.738.676Z" opacity=".2"/>
    <path fill="#407BFF" d="M301.104 240.711c-2.243-12.369-20.324-11.487-21.357 1.029l-3.248 39.43a27.673 27.673 0 0 0 2.214 13.344 27.762 27.762 0 0 0 8.281 10.716 27.77 27.77 0 0 0-9.933 9.238 27.64 27.64 0 0 0-4.355 12.823l-12.738 154.424a27.732 27.732 0 0 0 6.531 20.238 27.933 27.933 0 0 0 18.974 9.721l33.948 2.779a24.57 24.57 0 0 0 10.991-1.623 24.491 24.491 0 0 0 9.139-6.297 24.366 24.366 0 0 0 5.406-9.672 24.308 24.308 0 0 0 .56-11.057l-44.413-245.093Z" opacity=".2"/>
    <path fill="#407BFF" d="M431.73 442.918a14.351 14.351 0 0 1-3.082 7.764 14.435 14.435 0 0 1-6.891 4.751 14.495 14.495 0 0 1-8.379.135 14.44 14.44 0 0 1-7.042-4.525 14.354 14.354 0 0 1-3.333-7.661 14.334 14.334 0 0 1 1.5-8.215 14.407 14.407 0 0 1 5.826-6.001 14.48 14.48 0 0 1 8.191-1.764 14.47 14.47 0 0 1 9.827 5.035 14.369 14.369 0 0 1 3.383 10.481ZM385.841 387.222a10.15 10.15 0 0 1-2.178 5.497 10.21 10.21 0 0 1-4.876 3.364 10.244 10.244 0 0 1-10.914-3.104 10.148 10.148 0 0 1-1.297-11.236 10.2 10.2 0 0 1 4.125-4.246 10.25 10.25 0 0 1 5.797-1.246 10.246 10.246 0 0 1 6.947 3.562 10.167 10.167 0 0 1 2.396 7.409ZM343.141 263.257a10.248 10.248 0 0 1-5.746-1.449 10.186 10.186 0 0 1-3.971-4.385 10.138 10.138 0 0 1-.859-5.843c.3-1.99 1.184-3.846 2.542-5.335a10.228 10.228 0 0 1 5.088-3.03 10.25 10.25 0 0 1 5.92.296c1.9.679 3.556 1.905 4.758 3.521a10.15 10.15 0 0 1-.649 12.904 10.22 10.22 0 0 1-7.083 3.321ZM370.993 202.413a7.253 7.253 0 0 1-4.077-1.014 7.216 7.216 0 0 1-2.823-3.102 7.182 7.182 0 0 1 1.184-7.926 7.247 7.247 0 0 1 11.174.566 7.19 7.19 0 0 1-.466 9.124 7.24 7.24 0 0 1-4.992 2.352ZM415.804 343.233a4.19 4.19 0 0 1-.904 2.268 4.219 4.219 0 0 1-2.015 1.386 4.229 4.229 0 0 1-4.507-1.286 4.199 4.199 0 0 1-.536-4.64 4.229 4.229 0 0 1 4.095-2.272 4.246 4.246 0 0 1 2.876 1.476 4.21 4.21 0 0 1 .991 3.068Z" opacity=".3"/>
    <path fill="#fff" d="M339.347 458.302h-.708a8.567 8.567 0 0 1-5.904-2.942 8.43 8.43 0 0 1-1.993-6.206 8.505 8.505 0 0 1 1.773-4.525 8.55 8.55 0 0 1 3.967-2.823 8.58 8.58 0 0 1 4.871-.202 8.544 8.544 0 0 1 4.189 2.484 8.483 8.483 0 0 1 1.547 9.183 8.533 8.533 0 0 1-3.145 3.711 8.574 8.574 0 0 1-4.671 1.393l.074-.073Zm0-15.943a7.399 7.399 0 0 0-4.608 1.64 7.332 7.332 0 0 0-1.962 8.99 7.365 7.365 0 0 0 3.51 3.398 7.398 7.398 0 0 0 8.963-2.212 7.338 7.338 0 0 0-.22-9.198 7.37 7.37 0 0 0-5.063-2.588l-.62-.03ZM430.638 286.2h-.517a6.22 6.22 0 0 1-4.223-2.161 6.177 6.177 0 0 1-1.459-4.502 6.18 6.18 0 0 1 2.174-4.213 6.228 6.228 0 0 1 8.75.712 6.176 6.176 0 0 1 1.459 4.501 6.257 6.257 0 0 1-2.169 4.221 6.203 6.203 0 0 1-4.015 1.442Zm-5.092-6.604c-.074 1 .151 2 .646 2.873a5.095 5.095 0 0 0 2.134 2.035 5.125 5.125 0 0 0 5.618-.658 5.08 5.08 0 0 0 .59-7.177 5.046 5.046 0 0 0-3.542-1.647 5.1 5.1 0 0 0-4.96 2.739 5.044 5.044 0 0 0-.545 1.909l.059-.074ZM335.274 155.806h-.222a2.956 2.956 0 0 1-1.961-1.023 2.937 2.937 0 0 1-.108-3.673 2.961 2.961 0 0 1 3.049-1.09 2.956 2.956 0 0 1 2.217 2.353 2.932 2.932 0 0 1-1.283 2.962 2.957 2.957 0 0 1-1.619.486l-.073-.015Zm-1.786-3.029a1.774 1.774 0 0 0 .966 1.724 1.794 1.794 0 0 0 1.969-.226 1.775 1.775 0 0 0-.04-2.748 1.8 1.8 0 0 0-2.274.028 1.75 1.75 0 0 0-.621 1.222ZM400.542 231.975h-.619a7.399 7.399 0 0 1-5.055-2.579 7.33 7.33 0 0 1-.173-9.287 7.399 7.399 0 0 1 11.238-.435 7.328 7.328 0 0 1 1.329 7.92 7.364 7.364 0 0 1-2.71 3.202 7.4 7.4 0 0 1-4.024 1.208l.014-.029Zm0-13.678a6.256 6.256 0 0 0-4.059 1.471 6.29 6.29 0 0 0-2.214 4.265 6.257 6.257 0 0 0 .502 3.007 6.29 6.29 0 0 0 4.651 3.676 6.321 6.321 0 0 0 5.653-1.805 6.263 6.263 0 0 0-1.633-9.948 6.241 6.241 0 0 0-2.368-.666h-.532Z" opacity=".7"/>
    <path fill="#fff" d="m461.088 296.274 9.535-115.495a5.633 5.633 0 0 0-3.057-5.473 5.693 5.693 0 0 0-2.124-.601 5.669 5.669 0 0 0-4.121 1.312 5.606 5.606 0 0 0-1.975 3.836l-9.535 115.494a23.214 23.214 0 0 1-3.671 10.776 23.327 23.327 0 0 1-8.358 7.755l-5.801 3.221 5.21 4.103a23.361 23.361 0 0 1 6.98 9.01 23.273 23.273 0 0 1 1.876 11.227L433.31 495.863c-.768 9.266-6.613 13.781-14.834 17.384a2.58 2.58 0 0 0-1.221 1.134c-.27.502-.365 1.079-.27 1.64a2.571 2.571 0 0 0 2.317 2.138 23.505 23.505 0 0 0 17.081-5.47 23.339 23.339 0 0 0 8.203-15.899l12.738-154.424a23.255 23.255 0 0 0-1.873-11.229 23.329 23.329 0 0 0-6.983-9.008l-5.21-4.118 5.801-3.206a23.389 23.389 0 0 0 8.353-7.758 23.273 23.273 0 0 0 3.676-10.773Z" opacity=".3"/>
    <path fill="#407BFF" d="M614.297 475.759c-1.595-7.207-21.491-2.942-25.609-2.28a120.615 120.615 0 0 0-23.38 6.721c-8.31 3.251-17.963 8.03-26.568 3.089-4.974-2.853 12.295-8.486 13.86-9.06a126.443 126.443 0 0 0 21.166-9.677c2.73-1.618 8.014-5.486 5.741-9.412-1.889-3.251-8.664-2.942-12.782-2.442a152.607 152.607 0 0 0-36.442 9.104 361.17 361.17 0 0 0-33.447 15.251 43.213 43.213 0 0 1-13.564 4.868c-5.195.735-11.557-.368-13.609-3.235-2.051-2.868.591-6.222 1.196-9.104a15.421 15.421 0 0 0-1.019-10.295 10.879 10.879 0 0 0-4.797-5.03c-5.623-2.941-14.125-1.853-19.778.471a32.49 32.49 0 0 0-9.874 6.5 39.678 39.678 0 0 0-11.631 19.928 18.489 18.489 0 0 1-2.726 6.711 18.567 18.567 0 0 1-5.097 5.158c-7.911 5.309-22.406 5-33.491 2.338-19.35-4.574-34.11-15.266-37.667-27.34-1.727-5.751-2.568-11.766-10.332-14.016-5.018-1.471-15.528-.441-13.284 5.883a19.618 19.618 0 0 0 3.159 4.765c2.051 2.691 4.236 7.765-1.86 9.398a18.966 18.966 0 0 1-6.007.294c-19.602-1.309-37.638-7.824-49.328-17.001a39.62 39.62 0 0 1-9.535-10.781c-1.388-2.279-1.89-4.735-3.41-6.986a13.546 13.546 0 0 0-5.904-4.897c-7.527-3.221-25.21-1.544-26.45 5.515-.664 3.824 1.727 7.971 2.952 11.604.22.458.272.978.148 1.471-.354.926-1.757 1.191-2.952 1.265-15.808 1.044-31.144-5.074-44.413-11.457-14.052-6.766-29.52-15.575-49.048-15.678a37.972 37.972 0 0 0-11.97 1.368 7.056 7.056 0 0 0-2.686 1.382 3.424 3.424 0 0 0-.65 3.795 8.841 8.841 0 0 0 2.746 3.265c5.904 4.794 14.169 6.735 21.712 9.206a371.73 371.73 0 0 1 64.619 27.87c2.081 1.162 5.771 3.853 2.849 5.883-2.923 2.03-8.856.721-12.355.147-6.346-1.029-12.442-2.677-18.627-4.221-8.177-2.059-17.712-3.927-26.568-2.221-4.679.897-8.856 2.809-11.055 5.398a5.083 5.083 0 0 0-1.427 2.789 5.085 5.085 0 0 0 .482 3.094c3.041 5.397 16.901 7.721 24.473 10.295a247.51 247.51 0 0 1 28.383 11.662c7.867 3.883 15.173 8.133 23.144 11.942 28.472 13.604 68.235 15.355 103.792 16.678 38.597 1.471 77.372.221 115.866-1.912 28.044-1.559 55.571-4.632 83.055-8.25 7.896-1.03 15.748-2.295 23.616-3.368a148.48 148.48 0 0 0 23.616-4.662 19.992 19.992 0 0 0 7.601-3.795c2.111-1.956 2.775-4.515-1.004-5.25-7.911-1.574-16.059.22-23.793 1.618a460.831 460.831 0 0 0-25.8 5.485 101.427 101.427 0 0 1-11.808 2.398 29.797 29.797 0 0 1-11.971-.765c-1.269-.397-2.656-1.103-2.73-2.221-.074-1.118.989-1.824 2.081-2.25 15.926-6.295 32.841-10.295 49.874-13.972 11.557-2.5 23.321-4.03 34.966-5.986 10.613-1.779 21.801-2.191 30.996-8.897a10.58 10.58 0 0 0 4.074-4.898 5.871 5.871 0 0 0 .281-3.25ZM157.563 416.21c-4.324-12.251-19.734-33.944-22.981-21.134-1.742 7.192 22.981 21.134 22.981 21.134ZM544.541 440.329c8.236-7.485 18.509-11.941 19.837-5.353 1.24 6.235-19.837 5.353-19.837 5.353ZM206.64 380.795c-5.638-2.942-10.037-7.662-6.73-9.633 3.306-1.97 6.73 9.633 6.73 9.633Z" opacity=".3"/>
  </g>
  <defs>
    <clipPath id="a">
      <path fill="#fff" d="M0 0h738v548H0z"/>
    </clipPath>
  </defs>
</svg>
