<svg width="1403" height="583" viewBox="0 0 1403 583" fill="none" xmlns="http://www.w3.org/2000/svg">
<path d="M1340.95 15.1488C1340.73 17.9081 1339.69 20.5381 1337.96 22.7062C1336.24 24.8743 1333.92 26.4833 1331.28 27.3297C1328.64 28.1761 1325.82 28.2219 1323.15 27.4614C1320.49 26.7008 1318.12 25.1681 1316.32 23.0568C1314.53 20.9456 1313.41 18.3507 1313.09 15.6002C1312.78 12.8498 1313.28 10.0673 1314.55 7.60446C1315.81 5.14163 1317.78 3.10908 1320.2 1.76381C1322.62 0.418552 1325.38 -0.179051 1328.14 0.046575C1331.84 0.352964 1335.27 2.11548 1337.67 4.94706C1340.07 7.77864 1341.25 11.4478 1340.95 15.1488Z" fill="#ECF2FF"/>
<path d="M601.954 35.1488C601.727 37.9081 600.686 40.5381 598.965 42.7062C597.243 44.8743 594.917 46.4833 592.281 47.3297C589.645 48.1761 586.817 48.2219 584.154 47.4614C581.492 46.7008 579.115 45.1681 577.324 43.0568C575.533 40.9456 574.408 38.3507 574.092 35.6002C573.775 32.8498 574.281 30.0673 575.546 27.6045C576.811 25.1416 578.778 23.1091 581.198 21.7638C583.618 20.4186 586.382 19.8209 589.141 20.0466C592.842 20.353 596.27 22.1155 598.672 24.9471C601.075 27.7786 602.255 31.4478 601.954 35.1488Z" fill="#ECF2FF"/>
<path d="M65.9703 129.739C65.8243 131.512 65.1556 133.203 64.0487 134.597C62.9418 135.991 61.4466 137.025 59.7519 137.569C58.0572 138.113 56.2393 138.143 54.5279 137.654C52.8165 137.165 51.2884 136.179 50.137 134.822C48.9856 133.465 48.2624 131.797 48.059 130.029C47.8556 128.261 48.1809 126.472 48.994 124.889C49.8071 123.305 51.0714 121.999 52.6271 121.134C54.1827 120.269 55.9599 119.885 57.7338 120.03C60.1129 120.227 62.3165 121.36 63.8608 123.18C65.4051 125.001 66.1638 127.359 65.9703 129.739Z" fill="#ECF2FF"/>
<path d="M102.954 335.149C102.727 337.908 101.686 340.538 99.9646 342.706C98.2429 344.874 95.9169 346.483 93.2807 347.33C90.6446 348.176 87.8166 348.222 85.1545 347.461C82.4923 346.701 80.1154 345.168 78.3242 343.057C76.5331 340.946 75.4082 338.351 75.0918 335.6C74.7753 332.85 75.2815 330.067 76.5463 327.604C77.8111 325.142 79.7778 323.109 82.1977 321.764C84.6176 320.419 87.382 319.821 90.1415 320.047C93.8422 320.353 97.2701 322.115 99.6723 324.947C102.075 327.779 103.255 331.448 102.954 335.149Z" fill="#C6D7FF"/>
<path d="M739.954 523.149C739.727 525.908 738.686 528.538 736.965 530.706C735.243 532.874 732.917 534.483 730.281 535.33C727.645 536.176 724.817 536.222 722.154 535.461C719.492 534.701 717.115 533.168 715.324 531.057C713.533 528.946 712.408 526.351 712.092 523.6C711.775 520.85 712.281 518.067 713.546 515.604C714.811 513.142 716.778 511.109 719.198 509.764C721.618 508.419 724.382 507.821 727.141 508.047C730.842 508.353 734.27 510.115 736.672 512.947C739.075 515.779 740.255 519.448 739.954 523.149Z" fill="#C6D7FF"/>
<path d="M1368.95 510.149C1368.73 512.908 1367.69 515.538 1365.96 517.706C1364.24 519.874 1361.92 521.483 1359.28 522.33C1356.64 523.176 1353.82 523.222 1351.15 522.461C1348.49 521.701 1346.12 520.168 1344.32 518.057C1342.53 515.946 1341.41 513.351 1341.09 510.6C1340.78 507.85 1341.28 505.067 1342.55 502.604C1343.81 500.142 1345.78 498.109 1348.2 496.764C1350.62 495.419 1353.38 494.821 1356.14 495.047C1359.84 495.353 1363.27 497.115 1365.67 499.947C1368.07 502.779 1369.25 506.448 1368.95 510.149Z" fill="#C6D7FF"/>
<path opacity="0.7" d="M714.199 121.836H712.624C710.112 121.663 707.658 120.994 705.406 119.868C703.153 118.741 701.146 117.18 699.5 115.273C697.881 113.373 696.656 111.171 695.896 108.793C695.135 106.416 694.855 103.911 695.071 101.425C695.376 97.7482 696.746 94.2401 699.012 91.3289C701.278 88.4176 704.342 86.2292 707.831 85.0306C711.32 83.832 715.082 83.6753 718.658 84.5794C722.234 85.4835 725.47 87.4093 727.97 90.1219C730.471 92.8345 732.127 96.2164 732.738 99.8548C733.349 103.493 732.887 107.231 731.409 110.611C729.931 113.992 727.502 116.869 724.416 118.891C721.331 120.913 717.724 121.994 714.035 122L714.199 121.836ZM714.199 86.2642C710.468 86.2827 706.854 87.5731 703.954 89.9223C701.055 92.2716 699.042 95.5393 698.25 99.1863C697.457 102.833 697.931 106.642 699.594 109.983C701.257 113.324 704.009 115.998 707.396 117.565C710.783 119.131 714.603 119.495 718.225 118.598C721.847 117.7 725.055 115.595 727.32 112.628C729.585 109.662 730.77 106.012 730.681 102.281C730.593 98.5499 729.234 94.9605 726.831 92.1053C725.431 90.4456 723.715 89.0805 721.783 88.0891C719.851 87.0977 717.742 86.4997 715.577 86.3298L714.199 86.2642Z" fill="#9EBBFF"/>
<path opacity="0.7" d="M210.157 167.87H208.914C206.93 167.734 204.993 167.206 203.215 166.317C201.436 165.427 199.852 164.194 198.553 162.689C197.275 161.189 196.307 159.451 195.707 157.574C195.107 155.697 194.885 153.72 195.056 151.756C195.297 148.854 196.378 146.084 198.167 143.786C199.956 141.488 202.375 139.76 205.13 138.814C207.884 137.867 210.854 137.744 213.677 138.457C216.501 139.171 219.055 140.692 221.029 142.833C223.003 144.975 224.311 147.645 224.793 150.517C225.275 153.389 224.911 156.34 223.744 159.009C222.577 161.678 220.659 163.949 218.223 165.545C215.788 167.142 212.94 167.995 210.028 168L210.157 167.87ZM210.157 139.788C207.211 139.802 204.358 140.821 202.069 142.676C199.78 144.53 198.191 147.11 197.566 149.989C196.94 152.868 197.314 155.875 198.627 158.513C199.94 161.15 202.112 163.262 204.786 164.498C207.46 165.735 210.476 166.023 213.336 165.314C216.195 164.606 218.728 162.943 220.516 160.601C222.304 158.259 223.24 155.378 223.17 152.432C223.099 149.487 222.027 146.653 220.13 144.399C219.024 143.089 217.67 142.011 216.145 141.228C214.62 140.446 212.954 139.973 211.245 139.839L210.157 139.788Z" fill="#9EBBFF"/>
<path opacity="0.7" d="M19.1992 582.836H17.6243C15.1117 582.663 12.6582 581.994 10.4055 580.868C8.15284 579.741 6.14568 578.18 4.50002 576.273C2.88114 574.373 1.65594 572.171 0.895529 569.793C0.135122 567.416 -0.145291 564.911 0.0706056 562.425C0.37642 558.748 1.74586 555.24 4.01178 552.329C6.27771 549.418 9.34208 547.229 12.8308 546.031C16.3195 544.832 20.0817 544.675 23.658 545.579C27.2344 546.483 30.4702 548.409 32.9705 551.122C35.4707 553.835 37.1273 557.216 37.7379 560.855C38.3485 564.493 37.8868 568.231 36.4091 571.611C34.9314 574.992 32.5016 577.869 29.4164 579.891C26.3312 581.913 22.724 582.994 19.0352 583L19.1992 582.836ZM19.1992 547.264C15.4676 547.283 11.8538 548.573 8.95421 550.922C6.05459 553.272 4.04242 556.539 3.24974 560.186C2.45706 563.833 2.93123 567.642 4.59404 570.983C6.25685 574.324 9.00888 576.998 12.396 578.565C15.7832 580.131 19.6031 580.495 23.2252 579.598C26.8474 578.7 30.0555 576.595 32.32 573.628C34.5845 570.662 35.7702 567.012 35.6814 563.281C35.5925 559.55 34.2345 555.961 31.8313 553.105C30.431 551.446 28.7151 550.081 26.7833 549.089C24.8514 548.098 22.742 547.5 20.5773 547.33L19.1992 547.264Z" fill="#C6D7FF"/>
<path opacity="0.7" d="M670.262 353.784H668.19C664.884 353.557 661.655 352.677 658.691 351.195C655.727 349.712 653.086 347.657 650.921 345.148C648.791 342.649 647.179 339.751 646.178 336.623C645.178 333.495 644.809 330.199 645.093 326.927C645.495 322.09 647.297 317.474 650.279 313.643C653.26 309.813 657.292 306.933 661.883 305.356C666.473 303.779 671.423 303.573 676.129 304.762C680.835 305.952 685.092 308.486 688.382 312.055C691.672 315.624 693.852 320.074 694.655 324.862C695.459 329.649 694.851 334.567 692.907 339.015C690.962 343.463 687.765 347.248 683.706 349.909C679.646 352.57 674.9 353.992 670.046 354L670.262 353.784ZM670.262 306.979C665.352 307.004 660.597 308.701 656.782 311.793C652.967 314.884 650.319 319.183 649.276 323.982C648.233 328.781 648.857 333.792 651.045 338.188C653.233 342.584 656.854 346.103 661.311 348.164C665.767 350.225 670.793 350.704 675.56 349.523C680.326 348.343 684.547 345.572 687.526 341.669C690.506 337.766 692.066 332.963 691.949 328.054C691.832 323.145 690.045 318.422 686.883 314.665C685.041 312.481 682.783 310.685 680.241 309.38C677.699 308.076 674.924 307.289 672.075 307.065L670.262 306.979Z" fill="#C6D7FF"/>
<path opacity="0.7" d="M1381.23 349.81H1379.41C1376.5 349.61 1373.66 348.836 1371.05 347.531C1368.44 346.227 1366.12 344.419 1364.21 342.211C1362.34 340.011 1360.92 337.461 1360.04 334.708C1359.16 331.956 1358.83 329.055 1359.08 326.176C1359.44 321.919 1361.02 317.857 1363.65 314.486C1366.27 311.115 1369.82 308.581 1373.86 307.193C1377.9 305.806 1382.25 305.624 1386.39 306.671C1390.53 307.718 1394.28 309.948 1397.18 313.089C1400.07 316.229 1401.99 320.145 1402.7 324.358C1403.4 328.571 1402.87 332.899 1401.16 336.813C1399.45 340.727 1396.63 344.058 1393.06 346.4C1389.49 348.742 1385.31 349.993 1381.04 350L1381.23 349.81ZM1381.23 308.622C1376.91 308.643 1372.73 310.137 1369.37 312.857C1366.01 315.578 1363.68 319.361 1362.76 323.584C1361.85 327.807 1362.39 332.217 1364.32 336.085C1366.24 339.954 1369.43 343.051 1373.35 344.864C1377.28 346.678 1381.7 347.1 1385.89 346.061C1390.09 345.022 1393.8 342.583 1396.42 339.149C1399.05 335.714 1400.42 331.488 1400.32 327.168C1400.21 322.847 1398.64 318.691 1395.86 315.385C1394.24 313.463 1392.25 311.883 1390.01 310.735C1387.78 309.587 1385.33 308.894 1382.83 308.698L1381.23 308.622Z" fill="#9EBBFF"/>
</svg>
